<svg id="Layer_1" data-name="Layer 1" xmlns="http://www.w3.org/2000/svg" viewBox="0 0 120 120"><title>Cute Animals Vector Collection - Scene 1</title><path d="M86.69,95.55l-2,6.22-4.87,15.11H40.17l-4.86-15.1-2-6.25a27.06,27.06,0,0,1,.82-13.42L40.2,63.24l1.16-3.61H78.64l1.16,3.6,6.08,18.88A27,27,0,0,1,86.69,95.55Z" fill="#63402c"/><path d="M35.31,101.78a27.31,27.31,0,0,1-2-6.25Z" fill="#78501e"/><path d="M86.69,95.55a26.57,26.57,0,0,1-2,6.22Z" fill="#78501e"/><path d="M42.22,98.88c.42,1.09.88,2.16,1.39,3.2,5.77,11.84,8,14.28,8,14.28h6.85s5.14-.11,5-5-6.87-4.3-6.87-4.3-3.41-7.66-2.52-20.79" fill="none" stroke="#160014" stroke-linecap="round" stroke-linejoin="round" stroke-width="1.13"/><path d="M60,107.4a10.8,10.8,0,0,1,3.42-.33s3.41-7.66,2.52-20.79" fill="none" stroke="#160014" stroke-linecap="round" stroke-linejoin="round" stroke-width="1.13"/><path d="M77.78,98.88c-.42,1.09-.88,2.16-1.39,3.2-5.77,11.84-8,14.28-8,14.28H59.08" fill="none" stroke="#160014" stroke-linecap="round" stroke-linejoin="round" stroke-width="1.13"/><path d="M73.15,33.84s-1.3-6.53,5.66-10.54S93,26,93.5,29.56,85,38.63,85,38.63l-6.19.79Z" fill="#7a513a"/><path d="M77.86,36.72S75.76,26,84.21,24.87s11,5.93,9.41,10.45-10.1,5.4-10.1,5.4Z" fill="#4f3323"/><path d="M77.86,36.72s-1.79-7.34,3-10.6" fill="none" stroke="#160014" stroke-linecap="round" stroke-linejoin="round" stroke-width="1.13"/><path d="M45.81,33.84s1.3-6.53-5.66-10.54S26,26,25.46,29.56,34,38.63,34,38.63l6.19.79Z" fill="#7a513a"/><path d="M41.11,36.72S43.2,26,34.75,24.87s-11,5.93-9.41,10.45,10.1,5.4,10.1,5.4Z" fill="#4f3323"/><path d="M41.11,36.72s1.78-7.34-3-10.6" fill="none" stroke="#160014" stroke-linecap="round" stroke-linejoin="round" stroke-width="1.13"/><path d="M88,45c-4.18-6.21-10.92-16.08-28-16.08S36.19,38.75,32,45,19.82,66.74,29.46,75,60,82.76,60,82.76s20.9.47,30.54-7.78S92.17,51.17,88,45Z" fill="#7a513a"/><ellipse cx="59.42" cy="69.67" rx="19.39" ry="11.82" fill="#63402c"/><path d="M57.68,70.52a7.78,7.78,0,0,0,2.47.49,4.4,4.4,0,0,0,2-.54,2.8,2.8,0,0,0,1.27-1.32,6.74,6.74,0,0,0,.37-2.44V66.6a.57.57,0,0,1,.58-.57.59.59,0,0,1,.44.22,4.55,4.55,0,0,1,1,3.44A4.36,4.36,0,0,1,63.52,73a5.15,5.15,0,0,1-3.77.47,4.76,4.76,0,0,1-2.86-2.09.58.58,0,0,1,.19-.79.55.55,0,0,1,.48-.06Z" fill="#160014"/><path d="M71.93,56.66s-2.09-4.35-1.3-8.53,4.7-4.27,7.75,0,3,5,3,5Z" fill="#160014"/><path d="M59.39,58.84s1.92-2.7,3.75-1.57.43,5.49-3.75,6.71a7.7,7.7,0,0,1-4.09-4.36C54.25,56.49,58.35,56,59.39,58.84Z" fill="#160014"/><circle cx="73.85" cy="49.09" r="1.56" fill="#fff"/><path d="M47.56,56.66s2.09-4.35,1.31-8.53-4.71-4.27-7.75,0-3,5-3,5Z" fill="#160014"/><circle cx="45.64" cy="49.09" r="1.56" fill="#fff"/><path d="M79.81,116.88h7.7s1.32-9.59-7.37-9.59Z" fill="#4f3323"/><path d="M40.19,116.88h-7.7s-1.32-9.59,7.37-9.59Z" fill="#4f3323"/></svg>