<svg id="Layer_1" data-name="Layer 1" xmlns="http://www.w3.org/2000/svg" viewBox="0 0 120 120"><title>Cute Animals Vector Collection - Scene 2</title><path d="M71.16,99.42l.34.12.38.12.79.21c.54.13,1.08.25,1.62.34a21.37,21.37,0,0,0,3.28.29,17.61,17.61,0,0,0,6.29-1,15.53,15.53,0,0,0,5.25-3.25,16.33,16.33,0,0,0,3.67-4.9,18.5,18.5,0,0,0,1.69-5.89,26.39,26.39,0,0,0,0-6.34A40.44,40.44,0,0,0,90.56,66.6,4.15,4.15,0,1,1,98,63a2.88,2.88,0,0,1,.13.31v0a52.49,52.49,0,0,1,2.28,7.45,43.86,43.86,0,0,1,1,7.78,33.14,33.14,0,0,1-.61,8,24.65,24.65,0,0,1-2.94,7.64,21.94,21.94,0,0,1-5.43,6.11,20.56,20.56,0,0,1-7.25,3.64,21.68,21.68,0,0,1-7.91.62,24.56,24.56,0,0,1-3.83-.68c-.63-.16-1.25-.35-1.86-.56-.31-.1-.61-.22-.92-.34l-.46-.19-.23-.1-.26-.12A1.7,1.7,0,0,1,71,99.37Z" fill="#636669"/><path d="M76,114.13H39.47L33.74,90.25C30,74.68,40.21,58,57.75,58h0c17.54,0,27.75,16.69,24,32.26Z" fill="#636669"/><path d="M51.81,83.43c-.89,13.12,2.52,20.79,2.52,20.79a10.8,10.8,0,0,1,3.42.33c1.69.47,3.38,1.54,3.45,4,.13,4.88-5,5-5,5H49.34s-2.21-2.44-8-14.29c-3.7-7.58-5-16.79-5.5-22.42" fill="none" stroke="#160014" stroke-linecap="round" stroke-linejoin="round" stroke-width="1.13"/><path d="M57.75,104.55a10.75,10.75,0,0,1,3.41-.33s3.42-7.67,2.53-20.79" fill="none" stroke="#160014" stroke-linecap="round" stroke-linejoin="round" stroke-width="1.13"/><path d="M56.83,113.51h9.33s2.21-2.44,8-14.29c3.69-7.58,5-16.79,5.5-22.42" fill="none" stroke="#160014" stroke-linecap="round" stroke-linejoin="round" stroke-width="1.13"/><path d="M67.9,27.8s1.06-7.53,8.39-9.56A39.23,39.23,0,0,1,89,16.72s.09,9.21-4,15.34a16,16,0,0,1-10.54,6.83Z" fill="#3a3b3d"/><path d="M67.9,27.8a11.52,11.52,0,0,1,8.39-9.56A37.42,37.42,0,0,1,89,16.72S71.9,19.35,71,31.8Z" fill="#7a7e82"/><path d="M72.05,32s-2.82-8,10.14-12.91" fill="none" stroke="#160014" stroke-linecap="round" stroke-linejoin="round" stroke-width="1.13"/><path d="M47.29,28.4s.51-7.59-6.24-11.07a39,39,0,0,0-12.16-4.11s-2,9,.81,15.84a16,16,0,0,0,8.92,8.86Z" fill="#3a3b3d"/><path d="M47.29,28.4a11.5,11.5,0,0,0-6.24-11.07,37.29,37.29,0,0,0-12.16-4.11S45.11,19.31,43.4,31.67Z" fill="#7a7e82"/><path d="M42.37,31.68s4.4-7.27-7.28-14.72" fill="none" stroke="#160014" stroke-linecap="round" stroke-linejoin="round" stroke-width="1.13"/><path d="M78.27,32.69A31,31,0,0,0,58,21.91s-13.2.68-21.54,10.78c-4.18,5.07-9,11.21-17.94,17.94a18.44,18.44,0,0,1,7,7c2.9,5,14.86,16.26,32.51,16.26S87.59,62.59,90.49,57.6a18.36,18.36,0,0,1,7-7A111.31,111.31,0,0,1,78.27,32.69Z" fill="#7a7e82"/><path d="M76.85,43.61a6.16,6.16,0,0,1-12.31,0c0-.24,0-.47,0-.7a6.16,6.16,0,0,0,11.75-1.78A6,6,0,0,1,76.85,43.61Z" fill="#160014"/><path d="M36.09,43.61a6.16,6.16,0,0,0,12.31,0,5.37,5.37,0,0,0,0-.7,6.16,6.16,0,0,1-11.75-1.78A6.15,6.15,0,0,0,36.09,43.61Z" fill="#160014"/><path d="M62.82,55.8a.09.09,0,0,0,0,.05l0,.1h0a1.46,1.46,0,0,1-.38.51c-1.16,1-3.2,2.87-5.37,2.87-1.92,0-3.84-1.91-4.79-3.05a1.49,1.49,0,0,1-.44-.86h0c0-.16-.11-2.4,2.66-2.78S63.78,52.18,62.82,55.8Z" fill="#160014"/><path d="M56.26,62.73l.32.1.32.11.64.17a5.69,5.69,0,0,0,1.19.13c.19,0,.36,0,.54,0s.34,0,.51-.11a4.85,4.85,0,0,0,1-.39A2.63,2.63,0,0,0,62,61.42a4.17,4.17,0,0,0,.3-1.11c0-.21,0-.43.07-.65l0-.69v-.11a.57.57,0,0,1,.6-.55.62.62,0,0,1,.43.22,4.12,4.12,0,0,1,.48.75,5.4,5.4,0,0,1,.33.82A4.5,4.5,0,0,1,64.43,62a4.17,4.17,0,0,1-.78,1.92,4.71,4.71,0,0,1-1.56,1.31,5.18,5.18,0,0,1-3.78.45,5,5,0,0,1-1.65-.81,4.56,4.56,0,0,1-.65-.59c-.1-.11-.19-.22-.28-.34a4.17,4.17,0,0,1-.26-.38.56.56,0,0,1,.6-.84Z" fill="#160014"/><path d="M98.89,69.86l-2-2,.58,2.78a22,22,0,0,1-4.76,1.16,44.24,44.24,0,0,0-2.14-5.19A4.15,4.15,0,0,1,98,63a2.92,2.92,0,0,1,.14.31v0a50.5,50.5,0,0,1,1.93,6A11.91,11.91,0,0,1,98.89,69.86Z" fill="#3a3b3d"/><path d="M74.31,114.13h7.1s1.22-8.84-6.79-8.84Z" fill="#3a3b3d"/><path d="M41.19,114.13h-7.1s-1.22-8.84,6.79-8.84Z" fill="#3a3b3d"/></svg>