<svg id="Layer_1" data-name="Layer 1" xmlns="http://www.w3.org/2000/svg" viewBox="0 0 120 120"><title>Cute Animals Vector Collection - Scene 4</title><path d="M68.7,18.61s6.64-1.11,6.64-8.71c0,0,3.06,2.06,2.32,8.71-.44,3.94-5.23,6.5-5.23,6.5Z" fill="#5e514d"/><path d="M51.35,18.61S44.72,17.5,44.72,9.9c0,0-3.07,2.06-2.33,8.71.44,3.94,5.23,6.5,5.23,6.5Z" fill="#5e514d"/><path d="M75.84,27.84c0-10.37,22.3-14.25,19.35-7.57-1.77,4-6.37,7.59-14.74,9.66C74,31.53,75,32.33,75,32.33A16.77,16.77,0,0,0,75.84,27.84Z" fill="#c78080"/><path d="M77.22,26s7.24-4.76,12.46-5" fill="none" stroke="#160014" stroke-linecap="round" stroke-linejoin="round" stroke-width="1.13"/><path d="M44.35,27.84C44.35,17.47,22,13.59,25,20.27c1.78,4,6.38,7.59,14.75,9.66,6.47,1.6,5.42,2.4,5.42,2.4A17,17,0,0,1,44.35,27.84Z" fill="#c78080"/><path d="M43,26s-7.25-4.76-12.47-5" fill="none" stroke="#160014" stroke-linecap="round" stroke-linejoin="round" stroke-width="1.13"/><path d="M87.2,100.37,76.32,114h-8c0-1.77-.82-3.2-1.8-3.2s-1.77,1.43-1.79,3.2H55.3c0-1.77-.81-3.2-1.79-3.2s-1.77,1.43-1.79,3.2H43.64L32.76,100.37C21.86,86.73,28.82,63.8,60,63.8,71,63.8,79.05,66.69,84.3,71,93.83,78.9,94.23,91.57,87.2,100.37Z" fill="#5e514d"/><path d="M76.31,114h6.35s1.09-7.9-6.08-7.9Z" fill="#806c6a"/><path d="M43.65,114H37.31s-1.09-7.9,6.07-7.9Z" fill="#806c6a"/><path d="M92,43.86c-3.43-3.48-3.7-3.65-10.67-15.32S65.32,16.86,60,16.86s-14.4,0-21.37,11.68S31.37,40.38,27.94,43.86s-6.4,12.72,2.31,20.21S45.46,73.65,60,73.65s21-2.09,29.73-9.58S95.46,47.35,92,43.86Z" fill="#806c6a"/><ellipse cx="59.98" cy="63.3" rx="25.23" ry="14.08" fill="#e7abab"/><path d="M65.36,69.64a7.92,7.92,0,0,0,2.47.5,4.41,4.41,0,0,0,2-.55,2.73,2.73,0,0,0,1.27-1.31,6.8,6.8,0,0,0,.37-2.45v-.1a.58.58,0,0,1,.59-.57.56.56,0,0,1,.44.22,4.58,4.58,0,0,1,1,3.44,4.36,4.36,0,0,1-2.31,3.25,5.11,5.11,0,0,1-3.77.48,4.77,4.77,0,0,1-2.86-2.1.57.57,0,0,1,.19-.79.54.54,0,0,1,.48,0Z" fill="#160014"/><circle cx="74.37" cy="41.2" r="4.77" fill="#160014"/><circle cx="76.5" cy="39.39" r="1.16" fill="#fff"/><circle cx="45.59" cy="41.2" r="4.77" fill="#160014"/><circle cx="47.71" cy="39.39" r="1.16" fill="#fff"/><circle cx="67.33" cy="56.49" r="2.64" fill="#160014"/><circle cx="53" cy="56.49" r="2.64" fill="#160014"/><path d="M46.82,93.38c.11,10.68.53,20.41.53,20.41h4.36c.23-1.72,1-3,2-3s1.74,1.28,2,3h3.11s.78-5.64-3-7.91c-.26-2.95-.5-6.51-.59-10.3" fill="none" stroke="#160014" stroke-linecap="round" stroke-linejoin="round" stroke-width="1.13"/><path d="M65,95.58c-.09,3.79-.33,7.35-.59,10.3-3.77,2.27-3,7.91-3,7.91h3.11c.22-1.72,1-3,2-3s1.73,1.28,2,3h4.36s.42-9.73.53-20.41" fill="none" stroke="#160014" stroke-linecap="round" stroke-linejoin="round" stroke-width="1.13"/></svg>