<svg id="Layer_1" data-name="Layer 1" xmlns="http://www.w3.org/2000/svg" viewBox="0 0 120 120"><title>Cute Animals Vector Collection - Scene 8</title><path d="M78.26,116.22h7.1s1.22-8.84-6.79-8.84Z" fill="#302a28"/><path d="M41.74,116.22h-7.1s-1.22-8.84,6.79-8.84Z" fill="#302a28"/><path d="M90.45,100.76,78.28,116H70.57a2.48,2.48,0,0,1-2.42-1.88c-1.27-4.9-4.23-8.57-8.15-8.57s-6.88,3.67-8.14,8.57A2.5,2.5,0,0,1,49.44,116H41.72L29.55,100.76C17.37,85.5,25.14,59.86,60,59.86c12.37,0,21.33,3.23,27.2,8.08C97.86,76.75,98.31,90.91,90.45,100.76Z" fill="#5e514d"/><path d="M74.64,26s-1.28-6.62,4.68-7.32,5.89,11.61,0,8.68l-2.07.45Z" fill="#5e514d"/><path d="M76.32,25.48s-.7-5,4.44-5" fill="none" stroke="#160014" stroke-linecap="round" stroke-linejoin="round" stroke-width="1.13"/><path d="M44.63,26s1.28-6.62-4.67-7.32-5.9,11.61,0,8.68l2.06.45Z" fill="#5e514d"/><path d="M43,25.48s.69-5-4.45-5" fill="none" stroke="#160014" stroke-linecap="round" stroke-linejoin="round" stroke-width="1.13"/><path d="M89.05,66.4a64.89,64.89,0,0,1-27.18,8.3L60,74.8l-1.87-.1A64.89,64.89,0,0,1,31,66.4c-8.18-4.75-7.66-11.62-5.05-16.85a85.08,85.08,0,0,1,7.49-11.49s4.7-9.23,9.58-13.24,9.93-4.36,16.73-4.36h.6c6.8,0,11.85.35,16.73,4.36s9.58,13.24,9.58,13.24A85.08,85.08,0,0,1,94.1,49.55C96.71,54.78,97.23,61.65,89.05,66.4Z" fill="#776662"/><path d="M71.1,47.87s-2.32-5.57,3.13-7.66a5,5,0,0,1,7,3.13Z" fill="#160014"/><circle cx="83.76" cy="52.78" r="4.44" fill="#f8a7a7"/><circle cx="35.69" cy="52.78" r="4.44" fill="#f8a7a7"/><path d="M63.75,51.47s-.41,2.61-4,2.61H56.25" fill="none" stroke="#160014" stroke-linecap="round" stroke-linejoin="round" stroke-width="1.13"/><path d="M51.87,57.22s-1.4,4.7,3.57,5.22S60,58.61,60,58.61h0s-.4,4.36,4.56,3.83,3.57-5.22,3.57-5.22" fill="none" stroke="#160014" stroke-linecap="round" stroke-linejoin="round" stroke-width="1.13"/><circle cx="77.74" cy="41.03" r="0.92" fill="#fff"/><path d="M47.93,47.87s2.32-5.57-3.14-7.66a5,5,0,0,0-7,3.13Z" fill="#160014"/><circle cx="41.29" cy="41.03" r="0.92" fill="#fff"/><path d="M41.31,90.29A37.83,37.83,0,0,1,44.92,110s-4.55,1.16-4.55,5.81H50.78s4.43-6.84,4.43-18.17" fill="none" stroke="#160014" stroke-linecap="round" stroke-linejoin="round" stroke-width="1.13"/><path d="M78.38,90.29A37.77,37.77,0,0,0,74.76,110s4.56,1.16,4.56,5.81H68.9s-4.43-6.84-4.43-18.17" fill="none" stroke="#160014" stroke-linecap="round" stroke-linejoin="round" stroke-width="1.13"/></svg>