<svg id="Layer_1" data-name="Layer 1" xmlns="http://www.w3.org/2000/svg" viewBox="0 0 120 120"><title>Cute Animals Vector Collection - Scene 3</title><path d="M79.36,116.3h7.7s1.33-9.59-7.37-9.59Z" fill="#c77000"/><path d="M39.74,116.3H32s-1.32-9.59,7.37-9.59Z" fill="#c77000"/><path d="M85.38,97.66l-1.14,3.54-4.86,15.11H67.67a8,8,0,0,1-3.84-1,9.25,9.25,0,0,0-8.56,0,8,8,0,0,1-3.83,1H39.73l-4.86-15.1-1.15-3.56a26.08,26.08,0,0,1-.89-12.76,28.29,28.29,0,0,1,.84-3.35l6.08-18.88,1.16-3.61H78.19l1.16,3.61,6.08,18.88a27,27,0,0,1,.85,3.35A26.11,26.11,0,0,1,85.38,97.66Z" fill="#ff8f00"/><path d="M72.75,31.27c.87-4.35,3.22-14.89,7.14-16.55s6.1,4,8.62,14.29S93,50.26,86.08,52.09,72.75,31.27,72.75,31.27Z" fill="#ffdcc9"/><path d="M86.74,22.5c-1.36-2.38-3.1-4.37-4.94-3.57-4,1.75-5.06,16-5.06,16l-2.95-.35c-.67-2-1-3.34-1-3.34.87-4.35,3.22-14.89,7.14-16.55C82.88,13.46,84.85,16.45,86.74,22.5Z" fill="#78501e"/><path d="M86.74,22.5c-1.36-2.38-3.1-4.37-4.94-3.57-4,1.75-5.06,16-5.06,16l-2.95-.35c-.67-2-1-3.34-1-3.34.87-4.35,3.22-14.89,7.14-16.55C82.88,13.46,84.85,16.45,86.74,22.5Z" fill="#ff8f00"/><path d="M80.59,20s-5,8.88-3,17.94" fill="none" stroke="#160014" stroke-linecap="round" stroke-linejoin="round" stroke-width="1.13"/><path d="M47.25,31.27c-.87-4.35-3.22-14.89-7.14-16.55S34,18.73,31.49,29,27,50.26,33.92,52.09,47.25,31.27,47.25,31.27Z" fill="#ffdcc9"/><path d="M33.26,22.5c1.36-2.38,3.1-4.37,4.94-3.57,4,1.75,5.06,16,5.06,16l3-.35c.67-2,1-3.34,1-3.34-.87-4.35-3.22-14.89-7.14-16.55C37.12,13.46,35.15,16.45,33.26,22.5Z" fill="#78501e"/><path d="M33.26,22.5c1.36-2.38,3.1-4.37,4.94-3.57,4,1.75,5.06,16,5.06,16l3-.35c.67-2,1-3.34,1-3.34-.87-4.35-3.22-14.89-7.14-16.55C37.12,13.46,35.15,16.45,33.26,22.5Z" fill="#ff8f00"/><path d="M39.41,20S44.46,28.92,42.46,38" fill="none" stroke="#160014" stroke-linecap="round" stroke-linejoin="round" stroke-width="1.13"/><path d="M88.47,56.33C86.73,50.64,83,40.53,77.91,33.68S64.67,27.29,59.55,27.3s-13.28-.42-18.35,6.38-8.83,17-10.57,22.65-2.55,11.38,2,15.79S41,81.76,58,81.76h3c17.07,0,20.9-5.22,25.43-9.64S90.22,62,88.47,56.33Z" fill="#ff8f00"/><path d="M82.77,75.7C79,79,73.59,81.76,61.07,81.76H58c-12.53,0-17.93-2.81-21.7-6.05,1.51-1,4.87-3.4,6.56-6.14,2.2-3.6,1-7,3.85-10.8s5.55-6,8.22-10.06,2.21-9,2-14.68c-.11-2.75-.28-5.07-.42-6.73,1.08,0,2.1,0,3,0s2,0,3,0c-.14,1.66-.31,4-.42,6.73-.23,5.69-.7,10.66,2,14.68s5.41,6.22,8.22,10.06S74,66,76.21,69.57C77.89,72.31,81.26,74.71,82.77,75.7Z" fill="#ffdcc9"/><path d="M38.47,101.4c2.24,5.55,8,14.29,8,14.29h6.85s5.15-.12,5-5-6.86-4.3-6.86-4.3-3-7.62-3-14.46" fill="none" stroke="#160014" stroke-linecap="round" stroke-linejoin="round" stroke-width="1.13"/><path d="M80.64,101.4c-2.25,5.55-8,14.29-8,14.29H65.81s-5.14-.12-5-5,6.87-4.3,6.87-4.3,3-7.62,3-14.46" fill="none" stroke="#160014" stroke-linecap="round" stroke-linejoin="round" stroke-width="1.13"/><circle cx="72.75" cy="48.71" r="3.99" fill="#160014"/><circle cx="73.01" cy="46.85" r="1.64" fill="#fff"/><circle cx="45.61" cy="48.71" r="3.99" fill="#160014"/><circle cx="45.35" cy="46.85" r="1.64" fill="#fff"/><path d="M62.47,28.67c-.11,1.48-.23,3.3-.31,5.36-.23,5.69-.7,10.66,2,14.68s5.41,6.22,8.22,10.06S74,66,76.21,69.57a20.49,20.49,0,0,0,5.22,5.21" fill="none" stroke="#160014" stroke-linecap="round" stroke-linejoin="round" stroke-width="1.13"/><path d="M56.64,28.67c.11,1.48.23,3.3.31,5.36.23,5.69.7,10.66-2,14.68s-5.41,6.22-8.22,10.06S45.1,66,42.9,69.57a20.68,20.68,0,0,1-5.23,5.21" fill="none" stroke="#160014" stroke-linecap="round" stroke-linejoin="round" stroke-width="1.13"/><path d="M58.71,54.12c3.48.05,5.45-.11,6.38,2.44s-.79,6-5.33,6-7-3.66-5.58-6.39C55.06,54.53,56,54.08,58.71,54.12Z" fill="#160014"/><path d="M59.78,65.5s2.11,4.18,6.75,3.49,4.65-4.18,4.65-4.18" fill="none" stroke="#160014" stroke-linecap="round" stroke-linejoin="round" stroke-width="1.13"/><path d="M48.15,65.5A6.7,6.7,0,0,0,54.91,69c4.64-.7,4.64-4.18,4.64-4.18" fill="none" stroke="#160014" stroke-linecap="round" stroke-linejoin="round" stroke-width="1.13"/><path d="M66.27,69.07c-4.76-.39-6.49-2.84-6.49-2.84s-1.74,2.45-6.5,2.84c0,0-.83,8.74,6.5,9.21C67.1,77.81,66.27,69.07,66.27,69.07Z" fill="#160014"/><path d="M60.25,75s1.51-.81,4.87.81,5.35,0,5.58-1.74-2.44-4.18-5.23-3.6S60.25,75,60.25,75Z" fill="#ba4221" stroke="#160014" stroke-linecap="round" stroke-linejoin="round" stroke-width="1.13"/></svg>