<svg id="Layer_1" data-name="Layer 1" xmlns="http://www.w3.org/2000/svg" viewBox="0 0 120 120"><title>Cute Animals Vector Collection - Scene 5</title><path d="M75.51,26.32s3.13-8,13.4-7,14.29,9.58,18.29,14.11,3.14,8,2.27,8.89-2.61,1.22-1.22,4.53-.7,6.09-3.14,6.44-4.52.18-5,3-1.22,9.41-9.58,5.06S75.51,26.32,75.51,26.32Z" fill="#57648a"/><path d="M105.12,30.86c-3.52-2.8-8.53-6.13-13.89-7.67C81.12,20.29,78,32.42,78,32.42l-1,.12c-1-3.7-1.52-6.22-1.52-6.22s3.13-8,13.4-7C97.44,20.22,101.65,26.24,105.12,30.86Z" fill="#8092c2"/><path d="M105.12,30.86c-3.52-2.8-8.53-6.13-13.89-7.67C81.12,20.29,78,32.42,78,32.42l-1,.12c-1-3.7-1.52-6.22-1.52-6.22s3.13-8,13.4-7C97.44,20.22,101.65,26.24,105.12,30.86Z" fill="#8092c2"/><path d="M78,32.42s2.78-8.51,8-9.39" fill="none" stroke="#160014" stroke-linecap="round" stroke-linejoin="round" stroke-width="1.01"/><path d="M44.49,26.32s-3.13-8-13.4-7S16.8,28.93,12.8,33.46s-3.14,8-2.27,8.89,2.61,1.22,1.22,4.53.7,6.09,3.14,6.44,4.52.18,5.05,3,1.22,9.41,9.58,5.06S44.49,26.32,44.49,26.32Z" fill="#57648a"/><path d="M14.88,30.86c3.52-2.8,8.53-6.13,13.89-7.67C38.88,20.29,42,32.42,42,32.42l1,.12c1-3.7,1.52-6.22,1.52-6.22s-3.13-8-13.4-7C22.56,20.22,18.35,26.24,14.88,30.86Z" fill="#8092c2"/><path d="M14.88,30.86c3.52-2.8,8.53-6.13,13.89-7.67C38.88,20.29,42,32.42,42,32.42l1,.12c1-3.7,1.52-6.22,1.52-6.22s-3.13-8-13.4-7C22.56,20.22,18.35,26.24,14.88,30.86Z" fill="#8092c2"/><path d="M42,32.42S39.18,23.91,34,23" fill="none" stroke="#160014" stroke-linecap="round" stroke-linejoin="round" stroke-width="1.01"/><path d="M86.41,102.86,75.52,116.48H65.67a5.89,5.89,0,0,1-3-.79,4.18,4.18,0,0,1-2.38-3.16c-.23-3.51,1.45-3,.84-3.37a3.46,3.46,0,0,0-2-.58c-.72,0-1.64,0-2,.58-.21.43,1.54.69.84,3.52a4.65,4.65,0,0,1-1.48,2.39,5.93,5.93,0,0,1-3.91,1.41H42.84L32,102.86C21.07,89.22,28,66.29,59.19,66.29c11.06,0,19.07,2.89,24.31,7.23C93,81.4,93.43,94.06,86.41,102.86Z" fill="#57648a"/><path d="M75.51,116.48h6.35s1.09-7.9-6.08-7.9Z" fill="#8092c2"/><path d="M42.86,116.48H36.51s-1.09-7.9,6.07-7.9Z" fill="#8092c2"/><path d="M40.33,103.1c2,5,7.13,12.78,7.13,12.78h6.13s4.6-.11,4.48-4.47-6.14-3.84-6.14-3.84-2.73-6.82-2.73-12.93" fill="none" stroke="#160014" stroke-linecap="round" stroke-linejoin="round" stroke-width="1.01"/><path d="M78,103.1c-2,5-7.13,12.78-7.13,12.78H64.78s-4.6-.11-4.48-4.47,6.14-3.84,6.14-3.84,2.73-6.82,2.73-12.93" fill="none" stroke="#160014" stroke-linecap="round" stroke-linejoin="round" stroke-width="1.01"/><path d="M91.23,46.35C87.79,42.87,87.52,42.7,80.55,31s-16-11.68-21.37-11.68-14.4,0-21.36,11.68S30.58,42.87,27.14,46.35s-6.4,12.72,2.31,20.21,15.22,9.58,29.73,9.58,21-2.09,29.73-9.58S94.66,49.84,91.23,46.35Z" fill="#8092c2"/><path d="M64.57,67.43a7.56,7.56,0,0,0,2.47.49,4.36,4.36,0,0,0,2-.54,2.71,2.71,0,0,0,1.27-1.32,6.91,6.91,0,0,0,.38-2.44v-.11A.56.56,0,0,1,71.3,63a.59.59,0,0,1,.45.22,4.6,4.6,0,0,1,1,3.43,4.37,4.37,0,0,1-2.32,3.26,5.05,5.05,0,0,1-3.77.47,4.67,4.67,0,0,1-2.85-2.09.57.57,0,0,1,.18-.79.59.59,0,0,1,.48-.06Z" fill="#160014"/><path d="M59.16,45.31c5.82-1.08,10.45,2.79,10.63,8s-1.05,16-3.14,21.08-5.75,5.92-10.1,7-5.23,5.57-5.23,5.57-1,4.11-6.34,2.62c-4.16-1.17-5.14-6.3-3.86-8.49,0,0,2.07-4.36,9.5-4.93C59.16,75.49,39.48,49,59.16,45.31Z" fill="#9aadd4"/><circle cx="73.58" cy="43.69" r="4.77" fill="#160014"/><circle cx="75.7" cy="41.88" r="1.16" fill="#fff"/><circle cx="44.79" cy="43.69" r="4.77" fill="#160014"/><circle cx="46.92" cy="41.88" r="1.16" fill="#fff"/><path d="M43.74,81.08c0-3.19,5.09-4.17,11.72-5s4.08-9,2.61-15.74-.61-11.86,2.23-15.19" fill="none" stroke="#160014" stroke-linecap="round" stroke-linejoin="round" stroke-width="1.01"/><path d="M50.3,88.69h0c-.89.91-2.5,1.68-5.31.86-.32-.1-.63-.21-.92-.33A6.09,6.09,0,0,1,40.68,82a2.73,2.73,0,0,1,3.55-1.87,13.55,13.55,0,0,1,5.84,4.1A3.31,3.31,0,0,1,50.3,88.69Z" fill="#8092c2"/></svg>