<svg id="Layer_1" data-name="Layer 1" xmlns="http://www.w3.org/2000/svg" viewBox="0 0 120 120"><title>Cute Animals Vector Collection - Scene 14</title><path d="M72.2,104.25A57.27,57.27,0,0,0,84.72,92.12c3.54-4.62,4.8-.24,8.34,4.14s4.18,6,4.18,6L75.72,110Z" fill="#57648a"/><path d="M39.38,116.31H81.8s4.38-28.07-20-28.07L53.61,92Z" fill="#3b4970"/><path d="M75.35,102.69l-8.67,10.86a7.34,7.34,0,0,1-5.74,2.76H35.32a7.34,7.34,0,0,1-5.74-2.76l-8.67-10.86C10,89.05,17,66.12,48.13,66.12c11.06,0,19.07,2.89,24.32,7.23C82,81.23,82.38,93.89,75.35,102.69Z" fill="#57648a"/><path d="M29.28,102.94c2,5,7.13,12.77,7.13,12.77h6.12s4.6-.11,4.48-4.47-6.13-3.84-6.13-3.84-2.73-6.82-2.73-12.93" fill="none" stroke="#160014" stroke-linecap="round" stroke-linejoin="round" stroke-width="1.01"/><path d="M67,102.94c-2,5-7.13,12.77-7.13,12.77H53.73s-4.6-.11-4.48-4.47,6.13-3.84,6.13-3.84,2.73-6.82,2.73-12.93" fill="none" stroke="#160014" stroke-linecap="round" stroke-linejoin="round" stroke-width="1.01"/><path d="M81.09,47.58C75.46,33.69,66.83,23.3,48.73,22.86v0h-1.2v0c-18.1.44-26.73,10.83-32.36,24.72C9.43,61.78,17,80.07,43,80.07a5.05,5.05,0,0,0,5.15,3.39,5.05,5.05,0,0,0,5.15-3.39C79.3,80.07,86.84,61.78,81.09,47.58Z" fill="#7484b0"/><path d="M62.88,63.61C62.54,69.3,61,74.29,48.13,74.29s-14.4-5-14.75-10.68,4.06-9.53,4.06-9.53l1.84,1.86c1.84,1.86,5.94-.11,4.43-1.74s-2.78,0-4.06-1.05,1-3.36,2.9-4.41,2.79,0,5.58,0,3.72-1,5.58,0,4.18,3.37,2.9,4.41-2.54-.58-4,1.05,2.58,3.6,4.42,1.74l1.84-1.86S63.23,57.92,62.88,63.61Z" fill="#9aadd4"/><path d="M60,49.93s-3-8.1,3-11.23S73.14,42,73.14,42a9.06,9.06,0,0,1-3.4,7.06C66.17,51.76,60,49.93,60,49.93Z" fill="#160014"/><circle cx="68.55" cy="40.73" r="1.45" fill="#fff"/><path d="M36.27,49.93s2.95-8.1-3-11.23S23.12,42,23.12,42a9.06,9.06,0,0,0,3.4,7.06C30.09,51.76,36.27,49.93,36.27,49.93Z" fill="#160014"/><circle cx="32.47" cy="40.73" r="1.45" fill="#fff"/><path d="M44.51,64.31A7.61,7.61,0,0,0,46.37,66a4.41,4.41,0,0,0,2,.58,2.76,2.76,0,0,0,1.76-.48,7,7,0,0,0,1.58-1.91l.06-.09a.58.58,0,0,1,.79-.19.62.62,0,0,1,.27.42,4.59,4.59,0,0,1-.93,3.45,4.34,4.34,0,0,1-3.65,1.61,5.07,5.07,0,0,1-3.48-1.52,4.76,4.76,0,0,1-1.38-3.27A.58.58,0,0,1,44,64a.61.61,0,0,1,.45.2Z" fill="#160014"/><path d="M81.8,116.31A103,103,0,0,0,101,114.73c10.85-1.88,3.34-14.19,0-16.69s-4.59-1.25-4.59-1.25S86,106.18,74.5,104.3Z" fill="#3b4970"/><path d="M102.39,99.39a72,72,0,0,1-8.8,5.21" fill="none" stroke="#160014" stroke-linecap="round" stroke-linejoin="round" stroke-width="1.01"/><path d="M106.25,106.4A43.3,43.3,0,0,1,95.33,110" fill="none" stroke="#160014" stroke-linecap="round" stroke-linejoin="round" stroke-width="1.01"/><path d="M89.73,91.73A58.08,58.08,0,0,1,86,96.48" fill="none" stroke="#160014" stroke-linecap="round" stroke-linejoin="round" stroke-width="1.01"/><path d="M93.06,96.26s-1.68,1.18-4.7,3.13" fill="none" stroke="#160014" stroke-linecap="round" stroke-linejoin="round" stroke-width="1.01"/></svg>