<svg id="Layer_1" data-name="Layer 1" xmlns="http://www.w3.org/2000/svg" viewBox="0 0 120 120"><title>Cute Animals Vector Collection - Scene 6</title><path d="M103,65.85c-.57.92-1.43,2.11-2.11,3,.81-8.17-.49-11.85-.49-11.85l-2.45,3c-.53-2.18,1.39-4.44,1.39-4.44-5.4.69-9.76,6.09-9.19,12.22.07,1,.1,2,.12,3-.59-3.83-1.26-6.92-.86-9.15,0,0-2.79,3.74-1.74,13a29.67,29.67,0,0,1-6.56,22.49A20.49,20.49,0,0,1,74.65,101a19.34,19.34,0,0,1-7.53,1.25,21.49,21.49,0,0,1-7.67-1.75,26.38,26.38,0,0,1-3.62-1.87c-.58-.36-1.15-.75-1.7-1.15l-.8-.62L53,96.57l-.34-.29-.14-.12a2.1,2.1,0,0,0-2.9,3l.25.26.22.23.44.43c.29.28.58.55.89.81.6.53,1.22,1,1.86,1.51A31,31,0,0,0,57.29,105a27.15,27.15,0,0,0,9.34,3,25.4,25.4,0,0,0,10-.77,27.13,27.13,0,0,0,9.08-4.44,30.49,30.49,0,0,0,6.93-7.37c.33-.49.65-1,1-1.48l.11-.18C101.44,81.42,103,65.85,103,65.85Z" fill="#bd5c2b"/><path d="M74.73,114.35H38.18l-7.1-22C26,76.53,36.38,58.21,56.46,58.21h0c20.07,0,30.45,18.32,25.37,34.09Z" fill="#ffa06e"/><path d="M74.72,114.35h7.1s1.22-8.84-6.8-8.84Z" fill="#bd5c2b"/><path d="M38.2,114.35H31.1s-1.22-8.84,6.79-8.84Z" fill="#bd5c2b"/><path d="M38.68,96.42c.42,1.09.88,2.16,1.39,3.19,5.77,11.85,8,14.29,8,14.29H54.9s5.14-.12,5-5S53,104.61,53,104.61s-3.41-7.67-2.52-20.79" fill="none" stroke="#160014" stroke-linecap="round" stroke-linejoin="round" stroke-width="1.13"/><path d="M56.46,104.94a10.75,10.75,0,0,1,3.41-.33s3.42-7.67,2.52-20.79" fill="none" stroke="#160014" stroke-linecap="round" stroke-linejoin="round" stroke-width="1.13"/><path d="M74.23,96.42c-.42,1.09-.88,2.16-1.38,3.19-5.77,11.85-8,14.29-8,14.29H55.53" fill="none" stroke="#160014" stroke-linecap="round" stroke-linejoin="round" stroke-width="1.13"/><path d="M84.89,74.6a19,19,0,0,0-6.3-7.53l-22.13,5.7-22.13-5.7A18.91,18.91,0,0,0,28,74.6s4.18-1.17,6.3,0c0,0-1.17,2.54,0,6.67,0,0,2.33-3,5.19-2.65,0,0-2.28,4.09,2.6,8.54,4.51,4.11,13,7.37,14.26,7.84v.06l.08,0,.08,0V95c1.26-.47,9.75-3.73,14.26-7.84,4.87-4.45,2.59-8.54,2.59-8.54,2.86-.31,5.2,2.65,5.2,2.65,1.16-4.13,0-6.67,0-6.67C80.71,73.43,84.89,74.6,84.89,74.6Z" fill="#bd5c2b"/><path d="M67.26,27.22s-.61-7.58,6.09-11.15A39.39,39.39,0,0,1,85.46,11.8s2.09,9-.61,15.86a16,16,0,0,1-8.8,9Z" fill="#ffa06e"/><path d="M67.26,27.22a11.5,11.5,0,0,1,6.09-11.15A37.68,37.68,0,0,1,85.46,11.8S69.32,18.11,71.19,30.44Z" fill="#bd5c2b"/><path d="M72.22,30.44s-4.5-7.21,7.09-14.81" fill="none" stroke="#160014" stroke-linecap="round" stroke-linejoin="round" stroke-width="1.13"/><path d="M45.63,27.22s.61-7.58-6.1-11.15a39.29,39.29,0,0,0-12.1-4.27s-2.09,9,.61,15.86a16,16,0,0,0,8.79,9Z" fill="#ffa06e"/><path d="M45.63,27.22a11.5,11.5,0,0,0-6.1-11.15,37.59,37.59,0,0,0-12.1-4.27S43.57,18.11,41.7,30.44Z" fill="#bd5c2b"/><path d="M40.67,30.44s4.5-7.21-7.09-14.81" fill="none" stroke="#160014" stroke-linecap="round" stroke-linejoin="round" stroke-width="1.13"/><path d="M76.75,34A31,31,0,0,0,56.46,23.23S43.25,23.92,34.92,34c-4.18,5.06-9,11.2-18,17.94a18.27,18.27,0,0,1,7,7c2.9,5,14.86,16.25,32.52,16.25S86.07,63.92,89,58.93a18.34,18.34,0,0,1,7-7A112.1,112.1,0,0,1,76.75,34Z" fill="#ffa06e"/><circle cx="70.22" cy="45.25" r="5.84" fill="#160014"/><circle cx="72.55" cy="43.19" r="1.19" fill="#fff"/><circle cx="42" cy="45.25" r="5.84" fill="#160014"/><path d="M54.75,64.09a7.89,7.89,0,0,0,2.47.49,4.4,4.4,0,0,0,2-.54,2.85,2.85,0,0,0,1.27-1.32,6.76,6.76,0,0,0,.37-2.45v-.1a.58.58,0,0,1,1-.35,4.58,4.58,0,0,1,1,3.44,4.38,4.38,0,0,1-2.31,3.26,5.15,5.15,0,0,1-3.77.47A4.74,4.74,0,0,1,54,64.89a.57.57,0,0,1,.67-.84Z" fill="#160014"/><path d="M55.83,23.21C39,23.21,34.92,34,34.92,34c7.49-3.75,15.5-.88,17.76,6.18S50.8,55.74,50.8,55.74l5,1.27,5-1.27S56.72,47.25,59,40.2,69.26,30.27,76.75,34C76.75,34,72.72,23.21,55.83,23.21Z" fill="#bd5c2b"/><path d="M61.3,57.13s0,0,0,0l0,.1h0a1.31,1.31,0,0,1-.39.51c-1.16,1.05-3.19,2.87-5.37,2.88-1.92,0-3.83-1.92-4.79-3.05a1.61,1.61,0,0,1-.44-.87h0c0-.16-.11-2.4,2.66-2.78S62.26,53.5,61.3,57.13Z" fill="#21091e"/><circle cx="44.38" cy="43.19" r="1.19" fill="#fff"/></svg>