<svg id="Layer_1" data-name="Layer 1" xmlns="http://www.w3.org/2000/svg" viewBox="0 0 120 120"><title>Cute Animals Vector Collection - Scene 7</title><path d="M78.28,116.75H41.72L36.54,92.12C33.29,76.68,43.38,60.61,60,60.61h0c16.62,0,26.71,16.07,23.46,31.51Z" fill="#ff8f00"/><path d="M66.14,80.81c2.72,1.7,4.09-2.41,2.26-3S63.64,79.24,66.14,80.81Z" fill="#a36414"/><path d="M84.07,86.29a28.24,28.24,0,0,1-.61,5.83l-1,4.85-.85,4-.94,4.45-2.37,11.28H41.72l-2.61-12.41L36.54,92.12A28.05,28.05,0,0,1,36,88.38h0a27.88,27.88,0,0,1,2-12.62,25.82,25.82,0,0,1,3-5.45v0a24,24,0,0,1,2.63-3.06A22.88,22.88,0,0,1,60,60.61a23.35,23.35,0,0,1,21.37,13.7A27.77,27.77,0,0,1,84.07,86.29Z" fill="none"/><path d="M84.07,86.29a28.24,28.24,0,0,1-.61,5.83l-1,4.85c-2.47.08-2.17-9-4.4-11.8-2.64-3.31-.68-5,0-7.3a6.32,6.32,0,0,1,3.33-3.56A27.77,27.77,0,0,1,84.07,86.29Z" fill="#a36414"/><path d="M66.91,88c3.41-5.79,4.85-1.86,7.13.73s2.82,4.67-1,5.72S62.9,94.75,66.91,88Z" fill="#a36414"/><path d="M66.91,67.5c3.41-5.79,4.85-1.86,7.13.72s2.82,4.68-1,5.72S62.9,74.29,66.91,67.5Z" fill="#a36414"/><path d="M43.65,67.23c1.67.55,5,1.65,8.11,2.72,4.36,1.51,8,3.55,4.74,4s-4.4,3.35-7.37,3.79-2.77-3.4-6.27-5.73A5.91,5.91,0,0,1,41,70.31Z" fill="#a36414"/><path d="M45.12,98.29c-3.25,1.32-1.19,6.24-6,6L36.54,92.12A28.05,28.05,0,0,1,36,88.38h0c1.74-.75,2.94-.25,4,1.49,1.47,2.44,3.28,2.79,5.42,3.48S48.41,97,45.12,98.29Z" fill="#a36414"/><path d="M51.6,85.48c-4.57-1.83-6.85-1.36-6.48.73s4.09,5.05,5.19,7.14,5.2,0,7.45-2.36S55.1,86.87,51.6,85.48Z" fill="#a36414"/><path d="M39.75,77.87c-1,2-1.52,3.44-3.37,3.42A27.72,27.72,0,0,1,38,75.76C39.41,75.86,40.48,76.33,39.75,77.87Z" fill="#a36414"/><path d="M77.9,116.75h6.34s1.09-7.91-6.07-7.91Z" fill="#2b2b2a"/><path d="M42.1,116.75H35.76s-1.09-7.91,6.07-7.91Z" fill="#2b2b2a"/><polygon points="63.66 111.98 63.66 116.52 71.36 116.52 73.14 111.98 63.66 111.98" fill="#2b2b2a"/><path d="M75.88,103l-4.36,13.56h-8V103" fill="none" stroke="#160014" stroke-linecap="round" stroke-linejoin="round" stroke-width="1.13"/><polygon points="56.5 111.98 56.5 116.52 48.8 116.52 47.02 111.98 56.5 111.98" fill="#2b2b2a"/><line x1="63.5" y1="111.98" x2="73.3" y2="111.98" fill="none" stroke="#160014" stroke-linecap="round" stroke-linejoin="round" stroke-width="1.13"/><path d="M44.12,103l4.36,13.56h8V103" fill="none" stroke="#160014" stroke-linecap="round" stroke-linejoin="round" stroke-width="1.13"/><line x1="56.5" y1="111.98" x2="46.7" y2="111.98" fill="none" stroke="#160014" stroke-linecap="round" stroke-linejoin="round" stroke-width="1.13"/><polygon points="66.14 69.42 60 70.49 66.14 69.42 66.14 69.42" fill="#ff8f00"/><path d="M73.82,22.8c5.57.58,9.06-1.74,20-5.34s18-6.15,18.93-1.86-2.67,5.81-5.22,10.8-1.86,7.32-8,8.6-10.6-3.37-13.43,0S73.82,22.8,73.82,22.8Z" fill="#a36414"/><path d="M112.82,16.14h0c-2.22-3.07-9.84,0-18.32,4.41s-8.48,5-15.8,5.74l-2.88-.39c-1.2-1.78-2-3.1-2-3.1,5.57.58,9.05-1.74,20-5.34s18-6.15,18.93-1.86C112.76,15.79,112.79,16,112.82,16.14Z" fill="#ff8f00"/><path d="M78.69,26.29s3.87.51,10.73-3.07" fill="none" stroke="#160014" stroke-linecap="round" stroke-linejoin="round" stroke-width="1.13"/><path d="M46.18,22.8c-5.57.58-9.06-1.74-20-5.34s-18-6.15-18.93-1.86S10,21.41,12.5,26.4s1.86,7.32,8,8.6S31.12,31.63,34,35,46.18,22.8,46.18,22.8Z" fill="#a36414"/><path d="M7.18,16.14h0c2.22-3.07,9.84,0,18.32,4.41s8.48,5,15.8,5.74l2.88-.39c1.2-1.78,2-3.1,2-3.1-5.57.58-9-1.74-20-5.34s-18-6.15-18.93-1.86C7.24,15.79,7.21,16,7.18,16.14Z" fill="#ff8f00"/><path d="M41.31,26.29s-3.87.51-10.73-3.07" fill="none" stroke="#160014" stroke-linecap="round" stroke-linejoin="round" stroke-width="1.13"/><path d="M66,22.22a46.42,46.42,0,0,0,1.51-10.45c0-3.13-1.32-6.27,2-6.5s4.9,2.44,3.74,6.15-2.09,11.73-2.09,11.73Z" fill="#a36414"/><path d="M51.52,24.41s-.93-7.73-.58-11.06,2.32-3.79,1.39-6-4.63-.7-6.15.58.81,6.5,1.51,10.45.93,6,.93,6Z" fill="#a36414"/><path d="M86.59,37c-1.28-5.34-4-10.92-9.87-13.94-5.73-2.91-15.35-2.47-16-2.43s-10.26-.48-16,2.43c-5.92,3-8.6,8.6-9.87,13.94s-4.07,12.19-2.21,21.72S47.36,72,60.7,72h.07c13.33,0,26.17-3.84,28-13.35S87.87,42.31,86.59,37Z" fill="#ff8f00"/><circle cx="74.86" cy="40.92" r="5.36" fill="#160014"/><path d="M59.53,50.68c2.67-.2,5-1,8.71-2.1s4.07.82,3.37,2.1S69.4,53,71,54.39s5.34,4.3,3.83,8.54-4.41,3.77-7.49,5.4-3.19,2.09-7.84,2.2S49.31,67.4,47.22,64.26s-.69-7.2,1.28-9.4S46.76,52.18,46.87,51s1.75-2.9,5.46-1.51A14.81,14.81,0,0,0,59.53,50.68Z" fill="#a36414"/><ellipse cx="67.22" cy="52.62" rx="2.66" ry="1.32" transform="translate(-14.39 77.66) rotate(-55.11)" fill="#160014"/><ellipse cx="52.16" cy="52.62" rx="1.32" ry="2.66" transform="translate(-21.27 42.77) rotate(-37.61)" fill="#160014"/><path d="M59.53,61.39s.47,6.27,7.38,3.83" fill="none" stroke="#160014" stroke-linecap="round" stroke-linejoin="round" stroke-width="1.13"/><path d="M59.53,61.39s-.46,6.27-7.37,3.83" fill="none" stroke="#160014" stroke-linecap="round" stroke-linejoin="round" stroke-width="1.13"/><circle cx="77.12" cy="38.42" r="0.92" fill="#ff8f00"/><circle cx="75.22" cy="38.42" r="2.2" fill="#fff"/><circle cx="45.12" cy="40.92" r="5.36" fill="#160014"/><circle cx="42.86" cy="38.42" r="0.92" fill="#ff8f00"/><circle cx="44.76" cy="38.42" r="2.2" fill="#fff"/><path d="M80.65,105.47c-.78-.8-1.62-2.11-.43-3.58a2,2,0,0,1,1.37-.87Z" fill="#a36414"/><path d="M67.26,9.43c1.58,1.74,3.95.7,3.95.7" fill="none" stroke="#160014" stroke-linecap="round" stroke-linejoin="round" stroke-width="1.13"/><path d="M52.45,9.93c-1.57,1.75-3.94.7-3.94.7" fill="none" stroke="#160014" stroke-linecap="round" stroke-linejoin="round" stroke-width="1.13"/></svg>