<svg id="Layer_1" data-name="Layer 1" xmlns="http://www.w3.org/2000/svg" viewBox="0 0 120 120"><title>Cute Animals Vector Collection - Scene 9</title><path d="M97.53,75.8a27.94,27.94,0,0,1-2.9,1.53,7.08,7.08,0,0,0-2,1.3,5.68,5.68,0,0,0-1.2,1.79,12.28,12.28,0,0,0-.78,2.4c-.77,3.46-.76,7.79-2.23,12.18a24.3,24.3,0,0,1-3.1,6.17,26.52,26.52,0,0,1-2.1,2.69c-.37.42-.74.85-1.14,1.24l-.58.59-.6.57a61.62,61.62,0,0,1-10.37,7.66l-3.77-6.78a54.47,54.47,0,0,0,9.61-6l.53-.44.51-.44c.35-.3.66-.62,1-.92a23.46,23.46,0,0,0,1.79-2,17.9,17.9,0,0,0,2.67-4.44,29.4,29.4,0,0,0,1.55-5.3l.61-3c.06-.26.11-.52.17-.78s.12-.51.19-.78.13-.54.21-.81.15-.54.24-.81a17.29,17.29,0,0,1,1.36-3.25,12.21,12.21,0,0,1,1.06-1.59,10.35,10.35,0,0,1,1.39-1.42,10.87,10.87,0,0,1,1.62-1.08,14.57,14.57,0,0,1,1.59-.73,26.07,26.07,0,0,0,2.56-1.08Z" fill="#d09261"/><path d="M91.26,75.66c-1.24-2.48,1.58-6.35,5.44-6.48s5.68-.29,5.68-.29a17.28,17.28,0,0,1-3.49,3.55,7.23,7.23,0,0,0,4-.28c2.32-.77,2.78-1.93,2.78-1.93s-.26,5.09-4.59,7l1.5.22S95.08,83.31,91.26,75.66Z" fill="#86401c"/><path d="M73.57,116.9H37l-7.1-22.05c-5.08-15.77,5.3-34.09,25.37-34.09h0c20.08,0,30.45,18.32,25.38,34.09Z" fill="#ffa06e"/><path d="M73.55,116.9h7.1s1.22-8.84-6.79-8.84Z" fill="#ffa06e"/><path d="M37,116.9h-7.1s-1.22-8.84,6.79-8.84Z" fill="#ffa06e"/><path d="M46.79,13.11s4-5.25,5-7.93a9,9,0,0,1,1.86,5.36S74.54,8.91,82.59,20.1,94.25,53.8,94.25,53.8l-2.57-1.4a40.05,40.05,0,0,1-7.19,20.87c-7,9.56-18.23,14.58-24.87,15.62,0,0,.93-3-.82-4.66,0,0-1.51,5.25-5.25,7.11,0,0,.47-2.79-3.9-4.54S32.57,81.9,26.5,71.06s-5.36-15.7-5.36-15.7-2.33,3-2,5.11c0,0-4.55-7.6-2.1-18.8S24.64,26.52,29.3,22.2,43.06,15.09,43.76,9A4.92,4.92,0,0,1,46.79,13.11Z" fill="#86401c"/><path d="M41.05,23.37s-1.6-4.78-8.24-6.3-8.17-1.28-8.17-1.28-2.21,3.61-1.86,10.49S30,38.53,30,38.53Z" fill="#966946"/><path d="M24.45,16.15c1.86,1,4.73,2.66,7.45,4.36,4.51,2.83,3.84,8.78,3.84,8.78L36.92,29l4.13-5.66s-1.6-4.78-8.24-6.3-8.17-1.28-8.17-1.28S24.57,15.91,24.45,16.15Z" fill="#ffa06e"/><path d="M35.09,27.61s.41-4.78-3.54-7.33a45.13,45.13,0,0,0-4.5-2.77" fill="none" stroke="#160014" stroke-linecap="round" stroke-linejoin="round" stroke-width="1.01"/><path d="M24.45,16.15c1.86,1,4.73,2.66,7.45,4.36,4.51,2.83,3.84,8.78,3.84,8.78L36.92,29l4.13-5.66s-1.6-4.78-8.24-6.3-8.17-1.28-8.17-1.28S24.57,15.91,24.45,16.15Z" fill="none"/><path d="M67.53,23.37s1.61-4.78,8.25-6.3,8.16-1.28,8.16-1.28,2.22,3.61,1.87,10.49-7.23,12.25-7.23,12.25Z" fill="#966946"/><path d="M84.13,16.15c-1.85,1-4.72,2.66-7.44,4.36-4.52,2.83-3.85,8.78-3.85,8.78L71.66,29l-4.13-5.66s1.61-4.78,8.25-6.3,8.16-1.28,8.16-1.28A2.87,2.87,0,0,1,84.13,16.15Z" fill="#ffa06e"/><path d="M73.5,27.61s-.41-4.78,3.53-7.33a45.49,45.49,0,0,1,4.51-2.77" fill="none" stroke="#160014" stroke-linecap="round" stroke-linejoin="round" stroke-width="1.01"/><path d="M80.47,51.91c-3.14,8.21-3.76,10.4-5.42,13.81s-7.6,11.46-20.72,11.46S35.26,69.13,33.6,65.72s-2.27-5.6-5.42-13.81-1.92-13.82,5-23.44,16.62-7.7,21.17-7.7,14.25-1.92,21.16,7.7S83.62,43.68,80.47,51.91Z" fill="#ffa06e"/><path d="M63.51,50.24S62,52.17,54.33,52.17s-9.18-1.93-9.18-1.93c-2.54,2.36-2.45,5.95-.53,6.39s3.32-.27,5.07,1,2.36,2.88,4.64,2.88,2.88-1.66,4.63-2.88,3.15-.53,5.07-1S66.05,52.6,63.51,50.24Z" fill="#160014"/><path d="M54.33,58.9v7.43s.29,2.28,3.38,2.28S61,66.45,61,66.45" fill="none" stroke="#160014" stroke-linecap="round" stroke-linejoin="round" stroke-width="1.13"/><path d="M54.33,66.33S54,68.61,51,68.61s-3.27-2.16-3.27-2.16" fill="none" stroke="#160014" stroke-linecap="round" stroke-linejoin="round" stroke-width="1.13"/><path d="M36.39,36.52a5.65,5.65,0,0,0,11.29,0,4.41,4.41,0,0,0,0-.52,12.61,12.61,0,0,1-9.11-3.91A5.62,5.62,0,0,0,36.39,36.52Z" fill="#160014"/><path d="M84.13,16.15c-1.85,1-4.72,2.66-7.44,4.36-4.52,2.83-3.85,8.78-3.85,8.78L71.66,29l-4.13-5.66s1.61-4.78,8.25-6.3,8.16-1.28,8.16-1.28A2.87,2.87,0,0,1,84.13,16.15Z" fill="none"/><path d="M73.18,36.52a5.65,5.65,0,0,1-11.29,0,4.41,4.41,0,0,1,0-.52A12.61,12.61,0,0,0,71,32.09,5.62,5.62,0,0,1,73.18,36.52Z" fill="#160014"/><path d="M69.24,36.54a1.68,1.68,0,0,1,.69-.4,1.06,1.06,0,1,1,.57,2,1.41,1.41,0,0,1-.67,0,1,1,0,0,0,.29-.95A1,1,0,0,0,69.24,36.54Z" fill="#fff"/><path d="M42.07,36.54a1.64,1.64,0,0,1,.68-.4,1.21,1.21,0,0,1,1.56.62,1.2,1.2,0,0,1-1,1.35,1.44,1.44,0,0,1-.68,0,1,1,0,0,0,.3-.95A1,1,0,0,0,42.07,36.54Z" fill="#fff"/><path d="M49.32,94.3c.5,8.19,2.56,12.8,2.56,12.8a11.1,11.1,0,0,1,3.41.33c1.69.47,3.38,1.55,3.45,4,.13,4.88-5,5-5,5H46.88s-2.21-2.44-8-14.28A54.45,54.45,0,0,1,34.82,89.6" fill="none" stroke="#160014" stroke-linecap="round" stroke-linejoin="round" stroke-width="1.13"/><path d="M55.29,107.43a11.15,11.15,0,0,1,3.42-.33s2-4.61,2.56-12.8" fill="none" stroke="#160014" stroke-linecap="round" stroke-linejoin="round" stroke-width="1.13"/><path d="M54.37,116.39h9.34s2.2-2.44,8-14.28A54,54,0,0,0,75.76,89.6" fill="none" stroke="#160014" stroke-linecap="round" stroke-linejoin="round" stroke-width="1.13"/></svg>