<svg id="Layer_1" data-name="Layer 1" xmlns="http://www.w3.org/2000/svg" viewBox="0 0 120 120"><title>Cute Animals Vector Collection - Scene 10</title><path d="M77.58,116.67H41l-7.1-22c-5.07-15.77,5.3-34.09,25.38-34.09h0c20.07,0,30.45,18.32,25.37,34.09Z" fill="#78501e"/><path d="M80.24,33.85c1.83-4.64,5.08-10.68,11.35-8.94s9.41,15,3.6,18.9a9.55,9.55,0,0,1-10.8.14Z" fill="#4b3418"/><path d="M95.19,43.81a9.47,9.47,0,0,1-8.3,1.32l-2-5.36c9.29,1.28,10.22-7.89,4.39-8.69s-6.37,7-6.37,7l-1.8-2.15-.84-2c1.83-4.64,5.08-10.68,11.35-8.94S101,40,95.19,43.81Z" fill="#78501e"/><path d="M95.19,43.81a9.47,9.47,0,0,1-8.3,1.32l-2-5.36c9.29,1.28,10.22-7.89,4.39-8.69s-6.37,7-6.37,7l-1.8-2.15-.84-2c1.83-4.64,5.08-10.68,11.35-8.94S101,40,95.19,43.81Z" fill="none"/><path d="M83.8,37.1a4.61,4.61,0,0,1,3.84-5.92c5.23-1,6.62,5,3.6,6.85" fill="none" stroke="#160014" stroke-linecap="round" stroke-linejoin="round" stroke-width="1.13"/><path d="M39.76,33.85c-1.83-4.64-5.08-10.68-11.35-8.94S19,40,24.81,43.81a9.55,9.55,0,0,0,10.8.14Z" fill="#4b3418"/><path d="M24.81,43.81a9.47,9.47,0,0,0,8.3,1.32l2-5.36c-9.29,1.28-10.22-7.89-4.39-8.69s6.37,7,6.37,7l1.8-2.15.84-2c-1.83-4.64-5.08-10.68-11.35-8.94S19,40,24.81,43.81Z" fill="#78501e"/><path d="M24.81,43.81a9.47,9.47,0,0,0,8.3,1.32l2-5.36c-9.29,1.28-10.22-7.89-4.39-8.69s6.37,7,6.37,7l1.8-2.15.84-2c-1.83-4.64-5.08-10.68-11.35-8.94S19,40,24.81,43.81Z" fill="none"/><path d="M36.2,37.1a4.61,4.61,0,0,0-3.84-5.92c-5.23-1-6.62,5-3.6,6.85" fill="none" stroke="#160014" stroke-linecap="round" stroke-linejoin="round" stroke-width="1.13"/><path d="M89.25,53.54c0,16.54-13.4,24.85-29.94,24.85S29.36,70.08,29.36,53.54a29.95,29.95,0,0,1,59.89,0Z" fill="#78501e"/><path d="M57.19,24.6c-3.34-1.9-4.62-1.78-3.57-4.57s5.3.9,6.25,4.57a13.29,13.29,0,0,0-1.79-4.45c-1.44-2.32,2.3-2.91,2.81-.12a22,22,0,0,1,.24,5.46Z" fill="#4b3418"/><path d="M83.2,56C80.68,68.37,71.27,71.68,59.86,71.68S39,68.37,36.52,56s3.31-21.1,11-22.85a13.17,13.17,0,0,1,12.37,3.57,13.17,13.17,0,0,1,12.37-3.57C79.89,34.93,85.73,43.69,83.2,56Z" fill="#f7bb95"/><circle cx="72.66" cy="46.95" r="5.23" fill="#160014"/><ellipse cx="61.53" cy="56.03" rx="2.1" ry="1.52" transform="translate(-12.51 94.02) rotate(-69.48)" fill="#160014"/><circle cx="74.93" cy="45.2" r="1.39" fill="#fff"/><ellipse cx="70.43" cy="43.95" rx="1.39" ry="2.79" transform="translate(-10.45 62.67) rotate(-45)" fill="#fff"/><circle cx="46.92" cy="46.95" r="5.23" fill="#160014"/><circle cx="49.18" cy="45.2" r="1.39" fill="#fff"/><ellipse cx="44.68" cy="43.95" rx="1.39" ry="2.79" transform="translate(-17.99 44.47) rotate(-45)" fill="#fff"/><path d="M60.21,52.69s2.61-2.26,4.18-1.48.52,4.82.52,4.82" fill="none" stroke="#160014" stroke-linecap="round" stroke-linejoin="round" stroke-width="1.13"/><ellipse cx="55.87" cy="56.03" rx="1.52" ry="2.1" transform="translate(-16.1 23.14) rotate(-20.52)" fill="#160014"/><path d="M57.19,52.69S54.58,50.43,53,51.21,52.49,56,52.49,56" fill="none" stroke="#160014" stroke-linecap="round" stroke-linejoin="round" stroke-width="1.13"/><path d="M57.55,64.57a7.61,7.61,0,0,0,2.47.49,4.33,4.33,0,0,0,2-.54,2.67,2.67,0,0,0,1.27-1.32,6.91,6.91,0,0,0,.38-2.44v-.11a.57.57,0,0,1,.59-.56.56.56,0,0,1,.44.22,4.56,4.56,0,0,1,1,3.43A4.37,4.37,0,0,1,63.39,67a5,5,0,0,1-3.76.47,4.69,4.69,0,0,1-2.86-2.09.57.57,0,0,1,.18-.79.61.61,0,0,1,.49-.06Z" fill="#160014"/><path d="M37.7,74s0,15.8,5.77,27.64,8,14.29,8,14.29H58.3s5.14-.12,5-5-6.87-4.29-6.87-4.29S53,98.94,53.92,85.82" fill="none" stroke="#160014" stroke-linecap="round" stroke-linejoin="round" stroke-width="1.13"/><path d="M59.86,106.93a11,11,0,0,1,3.42-.32s3.41-7.67,2.52-20.79" fill="none" stroke="#160014" stroke-linecap="round" stroke-linejoin="round" stroke-width="1.13"/><path d="M82,74s0,15.8-5.77,27.64-8,14.29-8,14.29H58.94" fill="none" stroke="#160014" stroke-linecap="round" stroke-linejoin="round" stroke-width="1.13"/><path d="M77.58,116.67h7.1s1.22-8.84-6.79-8.84Z" fill="#78501e"/><path d="M41.06,116.67H34s-1.22-8.84,6.8-8.84Z" fill="#78501e"/></svg>