<?xml version="1.0" encoding="UTF-8" standalone="no"?>
<!-- Created with Inkscape (http://www.inkscape.org/) -->

<svg
   width="720"
   height="720"
   viewBox="0 0 720 720"
   version="1.1"
   id="svg1"
   sodipodi:docname="Documento sin nombre 1"
   xmlns:inkscape="http://www.inkscape.org/namespaces/inkscape"
   xmlns:sodipodi="http://sodipodi.sourceforge.net/DTD/sodipodi-0.dtd"
   xmlns:xlink="http://www.w3.org/1999/xlink"
   xmlns="http://www.w3.org/2000/svg"
   xmlns:svg="http://www.w3.org/2000/svg">
  <sodipodi:namedview
     id="namedview1"
     pagecolor="#505050"
     bordercolor="#eeeeee"
     borderopacity="1"
     inkscape:showpageshadow="0"
     inkscape:pageopacity="0"
     inkscape:pagecheckerboard="0"
     inkscape:deskcolor="#505050"
     inkscape:document-units="px"
     showguides="true" />
  <defs
     id="defs1">
    <inkscape:path-effect
       effect="spiro"
       id="path-effect26"
       is_visible="true"
       lpeversion="1" />
    <inkscape:path-effect
       effect="fillet_chamfer"
       id="path-effect14"
       is_visible="true"
       lpeversion="1"
       nodesatellites_param="F,0,0,1,0,0,0,1 @ F,0,0,1,0,23.254502,0,1 @ F,0,0,1,0,0,0,1"
       radius="0"
       unit="px"
       method="auto"
       mode="F"
       chamfer_steps="1"
       flexible="false"
       use_knot_distance="true"
       apply_no_radius="true"
       apply_with_radius="true"
       only_selected="false"
       hide_knots="false" />
    <inkscape:path-effect
       effect="fillet_chamfer"
       id="path-effect13"
       is_visible="true"
       lpeversion="1"
       nodesatellites_param="F,0,0,1,0,0,0,1 @ F,0,0,1,0,28.459882,0,1 @ F,0,0,1,0,0,0,1"
       radius="0"
       unit="px"
       method="auto"
       mode="F"
       chamfer_steps="1"
       flexible="false"
       use_knot_distance="true"
       apply_no_radius="true"
       apply_with_radius="true"
       only_selected="false"
       hide_knots="false" />
    <inkscape:path-effect
       effect="fillet_chamfer"
       id="path-effect12"
       is_visible="true"
       lpeversion="1"
       nodesatellites_param="F,0,0,1,0,120.51294,0,1 @ F,0,0,1,0,120.51294,0,1 @ F,0,0,1,0,50.776196,0,1 @ F,0,1,1,0,50.776196,0,1"
       radius="0"
       unit="px"
       method="auto"
       mode="F"
       chamfer_steps="1"
       flexible="false"
       use_knot_distance="true"
       apply_no_radius="true"
       apply_with_radius="true"
       only_selected="false"
       hide_knots="false" />
  </defs>
  <g
     inkscape:label="Phisi"
     inkscape:groupmode="layer"
     id="layer1">
    <path
       id="path12"
       style="fill:#9dacc4;fill-opacity:1;stroke:none;stroke-width:10;stroke-linecap:round;stroke-linejoin:round;stroke-dasharray:none;stroke-opacity:1"
       d="m 280.9043,56.582031 c -118.20876,0 -213.20673,95.823419 -212.14453,214.027349 1.15064,128.04703 2.30052,256.12561 3.45117,406.27343 0.1765,23.03163 18.98722,41.70313 42.01953,41.70313 h 339.53906 a 41.348798,41.348798 0 0 0 41.34766,-41.70313 l -1.96485,-229.85156 h -6.95898 c -1.66526,0 -3.31093,-0.0844 -4.93164,-0.24805 -1.62072,-0.16361 -3.21693,-0.40532 -4.78516,-0.72461 -1.56823,-0.31928 -3.10938,-0.71462 -4.61718,-1.18164 -1.50781,-0.46701 -2.98243,-1.00646 -4.42188,-1.61328 -1.43945,-0.60681 -2.84388,-1.28086 -4.20703,-2.01953 -1.36315,-0.73867 -2.68593,-1.5417 -3.96485,-2.4043 -1.27891,-0.86259 -2.51247,-1.78509 -3.69921,-2.76367 -1.18674,-0.97858 -2.32548,-2.01298 -3.41211,-3.09961 -1.08663,-1.08663 -2.12103,-2.22537 -3.09961,-3.41211 -0.97858,-1.18674 -1.90108,-2.42226 -2.76367,-3.70117 -0.8626,-1.27891 -1.66563,-2.60169 -2.4043,-3.96484 -0.73868,-1.36315 -1.41467,-2.76563 -2.02149,-4.20508 -0.60681,-1.43945 -1.14431,-2.91602 -1.61132,-4.42383 -0.46702,-1.50781 -0.86236,-3.047 -1.18164,-4.61523 -0.31929,-1.56823 -0.56296,-3.1664 -0.72657,-4.78711 -0.16361,-1.62072 -0.24804,-3.26443 -0.24804,-4.92969 0,-1.66526 0.0844,-3.31093 0.24804,-4.93164 0.16361,-1.62072 0.40728,-3.21693 0.72657,-4.78516 0.31928,-1.56823 0.71462,-3.10742 1.18164,-4.61523 0.46701,-1.50781 1.00451,-2.98438 1.61132,-4.42383 0.60682,-1.43945 1.28281,-2.84193 2.02149,-4.20508 0.73867,-1.36315 1.5417,-2.68593 2.4043,-3.96484 0.86259,-1.27891 1.78509,-2.51443 2.76367,-3.70117 0.97858,-1.18674 2.01298,-2.32548 3.09961,-3.41211 1.08663,-1.08663 2.22537,-2.12103 3.41211,-3.09961 1.18674,-0.97858 2.4203,-1.90108 3.69921,-2.76367 1.27892,-0.8626 2.6017,-1.66563 3.96485,-2.4043 1.36315,-0.73867 2.76758,-1.41272 4.20703,-2.01953 1.43945,-0.60682 2.91407,-1.14627 4.42188,-1.61328 1.5078,-0.46702 3.04895,-0.86236 4.61718,-1.18164 1.56823,-0.31929 3.16444,-0.56296 4.78516,-0.72657 1.62071,-0.16361 3.26638,-0.24609 4.93164,-0.24609 h 6.13672 l -0.68555,-80.23437 A 213.30406,213.30406 0 0 0 280.9043,56.582031 Z"
       inkscape:label="Janchi / tronco" />
    <rect
       style="fill:#eceef4;fill-opacity:1;stroke:none;stroke-width:9.29864;stroke-linejoin:round;stroke-dasharray:none;stroke-opacity:1"
       id="rect2"
       width="199.82391"
       height="101.85364"
       x="140.02261"
       y="261.23657"
       ry="50.926819"
       inkscape:label="Laka / Boca" />
    <g
       id="g28"
       inkscape:label="Lunkunaka / Manchas">
      <path
         id="rect1"
         style="fill:#60769b;fill-opacity:1;stroke:none;stroke-width:10;stroke-linecap:round;stroke-linejoin:round;stroke-dasharray:none;stroke-opacity:1"
         d="m 492.33008,350.84375 h -6.13672 c -1.66526,0 -3.31093,0.0825 -4.93164,0.24609 -1.62072,0.16361 -3.21693,0.40728 -4.78516,0.72657 -1.56823,0.31928 -3.10938,0.71462 -4.61718,1.18164 -1.50781,0.46701 -2.98243,1.00646 -4.42188,1.61328 -1.43945,0.60681 -2.84388,1.28086 -4.20703,2.01953 -1.36315,0.73867 -2.68593,1.5417 -3.96485,2.4043 -1.27891,0.86259 -2.51247,1.78509 -3.69921,2.76367 -1.18674,0.97858 -2.32548,2.01298 -3.41211,3.09961 -1.08663,1.08663 -2.12103,2.22537 -3.09961,3.41211 -0.97858,1.18674 -1.90108,2.42226 -2.76367,3.70117 -0.8626,1.27891 -1.66563,2.60169 -2.4043,3.96484 -0.73868,1.36315 -1.41467,2.76563 -2.02149,4.20508 -0.60681,1.43945 -1.14431,2.91602 -1.61132,4.42383 -0.46702,1.50781 -0.86236,3.047 -1.18164,4.61523 -0.31929,1.56823 -0.56296,3.16444 -0.72657,4.78516 -0.16361,1.62071 -0.24804,3.26638 -0.24804,4.93164 0,1.66526 0.0844,3.30897 0.24804,4.92969 0.16361,1.62071 0.40728,3.21888 0.72657,4.78711 0.31928,1.56823 0.71462,3.10742 1.18164,4.61523 0.46701,1.50781 1.00451,2.98438 1.61132,4.42383 0.60682,1.43945 1.28281,2.84193 2.02149,4.20508 0.73867,1.36315 1.5417,2.68593 2.4043,3.96484 0.86259,1.27891 1.78509,2.51443 2.76367,3.70117 0.97858,1.18674 2.01298,2.32548 3.09961,3.41211 1.08663,1.08663 2.22537,2.12103 3.41211,3.09961 1.18674,0.97858 2.4203,1.90108 3.69921,2.76367 1.27892,0.8626 2.6017,1.66563 3.96485,2.4043 1.36315,0.73867 2.76758,1.41272 4.20703,2.01953 1.43945,0.60682 2.91407,1.14627 4.42188,1.61328 1.5078,0.46702 3.04895,0.86236 4.61718,1.18164 1.56823,0.31929 3.16444,0.561 4.78516,0.72461 1.62071,0.16361 3.26638,0.24805 4.93164,0.24805 h 6.95898 z" />
      <path
         id="rect1-8"
         style="fill:#60769b;fill-opacity:1;stroke:none;stroke-width:10;stroke-linecap:round;stroke-linejoin:round;stroke-dasharray:none;stroke-opacity:1"
         d="m 493.72364,487.86328 h -6.13672 c -1.66526,0 -3.31093,0.0825 -4.93164,0.24609 -1.62072,0.16361 -3.21693,0.40728 -4.78516,0.72657 -1.56823,0.31928 -3.10938,0.71462 -4.61718,1.18164 -1.50781,0.46701 -2.98243,1.00646 -4.42188,1.61328 -1.43945,0.60681 -2.84388,1.28086 -4.20703,2.01953 -1.36315,0.73867 -2.68593,1.5417 -3.96485,2.4043 -1.27891,0.86259 -2.51247,1.78509 -3.69921,2.76367 -1.18674,0.97858 -2.32548,2.01298 -3.41211,3.09961 -1.08663,1.08663 -2.12103,2.22537 -3.09961,3.41211 -0.97858,1.18674 -1.90108,2.42226 -2.76367,3.70117 -0.8626,1.27891 -1.66563,2.60169 -2.4043,3.96484 -0.73868,1.36315 -1.41467,2.76563 -2.02149,4.20508 -0.60681,1.43945 -1.14431,2.91602 -1.61132,4.42383 -0.46702,1.50781 -0.86236,3.047 -1.18164,4.61523 -0.31929,1.56823 -0.56296,3.16444 -0.72657,4.78516 -0.16361,1.62071 -0.24804,3.26638 -0.24804,4.93164 0,1.66526 0.0844,3.30897 0.24804,4.92969 0.16361,1.62071 0.40728,3.21888 0.72657,4.78711 0.31928,1.56823 0.71462,3.10742 1.18164,4.61523 0.46701,1.50781 1.00451,2.98438 1.61132,4.42383 0.60682,1.43945 1.28281,2.84193 2.02149,4.20508 0.73867,1.36315 1.5417,2.68593 2.4043,3.96484 0.86259,1.27891 1.78509,2.51443 2.76367,3.70117 0.97858,1.18674 2.01298,2.32548 3.09961,3.41211 1.08663,1.08663 2.22537,2.12103 3.41211,3.09961 1.18674,0.97858 2.4203,1.90108 3.69921,2.76367 1.27892,0.8626 2.6017,1.66563 3.96485,2.4043 1.36315,0.73867 2.76758,1.41272 4.20703,2.01953 1.43945,0.60682 2.91407,1.14627 4.42188,1.61328 1.5078,0.46702 3.04895,0.86236 4.61718,1.18164 1.56823,0.31929 3.16444,0.561 4.78516,0.72461 1.62071,0.16361 3.26638,0.24805 4.93164,0.24805 h 6.95898 z" />
    </g>
    <g
       id="g26"
       inkscape:label="Nayranaka / Ojos"
       style="display:inline">
      <path
         d="m 241.5332,194.13281 h -7.71875 v 10.36914 c 0,0.71206 -0.039,1.41442 -0.11523,2.10742 -0.0762,0.69301 -0.18914,1.37632 -0.33789,2.04688 -0.14875,0.67056 -0.3332,1.32988 -0.55078,1.97461 -0.21758,0.64473 -0.46729,1.27513 -0.75,1.89062 -0.28272,0.6155 -0.59726,1.21596 -0.94141,1.79883 -0.34415,0.58287 -0.71921,1.14846 -1.12109,1.69531 -0.40188,0.54686 -0.83119,1.0746 -1.28711,1.58204 -0.45592,0.50744 -0.9371,0.99435 -1.44336,1.45898 -0.50626,0.46464 -1.03695,0.90579 -1.58985,1.32422 -0.55289,0.41843 -1.12876,0.8128 -1.72461,1.18164 -0.59584,0.36884 -1.21256,0.71345 -1.84765,1.0293 -0.63509,0.31585 -1.28835,0.60381 -1.95899,0.86328 -0.67063,0.25947 -1.35806,0.48976 -2.06054,0.68945 -0.70249,0.19969 -1.41976,0.36934 -2.15039,0.50586 -0.73064,0.13652 -1.47539,0.24059 -2.23047,0.31055 -0.75509,0.07 -1.52104,0.10547 -2.29688,0.10547 -0.77584,0 -1.54179,-0.0355 -2.29687,-0.10547 -0.75509,-0.07 -1.49984,-0.17403 -2.23047,-0.31055 -0.73063,-0.13652 -1.44791,-0.30617 -2.15039,-0.50586 -0.70248,-0.19969 -1.38991,-0.42998 -2.06055,-0.68945 -0.67063,-0.25947 -1.3239,-0.54743 -1.95898,-0.86328 -0.63509,-0.31585 -1.25182,-0.66046 -1.84766,-1.0293 -0.59584,-0.36884 -1.17171,-0.76321 -1.72461,-1.18164 -0.5529,-0.41843 -1.08358,-0.85958 -1.58984,-1.32422 -0.50626,-0.46463 -0.98744,-0.95154 -1.44336,-1.45898 -0.45592,-0.50744 -0.88523,-1.03518 -1.28711,-1.58204 -0.40188,-0.54685 -0.77695,-1.11244 -1.12109,-1.69531 -0.34415,-0.58287 -0.6587,-1.18333 -0.94141,-1.79883 -0.28271,-0.61549 -0.53242,-1.24589 -0.75,-1.89062 -0.21758,-0.64473 -0.40203,-1.30405 -0.55078,-1.97461 -0.14875,-0.67056 -0.26167,-1.35387 -0.33789,-2.04688 -0.0762,-0.693 -0.11524,-1.39536 -0.11524,-2.10742 v -10.36914 h -20.14648 v 14.5293 c 0,1.17916 0.0607,2.34457 0.17969,3.49219 0.11899,1.14761 0.29512,2.27822 0.52734,3.38867 0.23222,1.11045 0.51971,2.19991 0.85937,3.26758 0.33967,1.06766 0.73249,2.11355 1.17383,3.13281 0.44135,1.01926 0.9315,2.01133 1.46875,2.97656 0.53725,0.96524 1.12067,1.90301 1.74805,2.8086 0.62738,0.90558 1.29803,1.78077 2.00977,2.62109 0.71174,0.84032 1.46553,1.64658 2.25585,2.41601 0.79033,0.76944 1.61734,1.50044 2.48047,2.19336 0.86314,0.69293 1.76123,1.34624 2.69141,1.95704 0.93018,0.61079 1.89332,1.18007 2.88477,1.70312 0.99144,0.52305 2.01165,1.00001 3.05859,1.42969 1.04693,0.42968 2.12014,0.81189 3.2168,1.14258 1.09665,0.33069 2.21682,0.60985 3.35742,0.83593 1.1406,0.22608 2.30169,0.39978 3.48047,0.51563 1.17877,0.11585 2.37476,0.17383 3.58593,0.17383 h 3.00196 c 1.21117,0 2.40716,-0.058 3.58593,-0.17383 1.17878,-0.11585 2.33987,-0.28955 3.48047,-0.51563 1.14061,-0.22608 2.26077,-0.50524 3.35743,-0.83593 1.09665,-0.33069 2.16986,-0.7129 3.21679,-1.14258 1.04694,-0.42968 2.06715,-0.90664 3.0586,-1.42969 0.99144,-0.52305 1.95459,-1.09233 2.88476,-1.70312 0.93018,-0.6108 1.82827,-1.26411 2.69141,-1.95704 0.86314,-0.69292 1.69014,-1.42392 2.48047,-2.19336 0.79032,-0.76943 1.54412,-1.57569 2.25586,-2.41601 0.71174,-0.84032 1.38238,-1.71551 2.00976,-2.62109 0.62738,-0.90559 1.2108,-1.84336 1.74805,-2.8086 0.53725,-0.96523 1.0274,-1.9573 1.46875,-2.97656 0.44135,-1.01926 0.83416,-2.06515 1.17383,-3.13281 0.33967,-1.06767 0.62715,-2.15713 0.85937,-3.26758 0.23222,-1.11045 0.40835,-2.24106 0.52735,-3.38867 0.0248,-0.2394 0.0174,-0.48765 0.0371,-0.72852 -0.0737,-0.91377 -0.13867,-1.83051 -0.13867,-2.76367 z"
         style="fill:#eceef4;stroke-width:11.5731;stroke-linejoin:round"
         id="path22" />
      <path
         d="m 233.81445,194.13281 h -44.8125 v 10.36914 c 0,0.71206 0.039,1.41442 0.11524,2.10742 0.0762,0.69301 0.18914,1.37632 0.33789,2.04688 0.14875,0.67056 0.3332,1.32988 0.55078,1.97461 0.21758,0.64473 0.46729,1.27513 0.75,1.89062 0.28271,0.6155 0.59726,1.21596 0.94141,1.79883 0.34414,0.58287 0.71921,1.14846 1.12109,1.69531 0.40188,0.54686 0.83119,1.0746 1.28711,1.58204 0.45592,0.50744 0.9371,0.99435 1.44336,1.45898 0.50626,0.46464 1.03694,0.90579 1.58984,1.32422 0.5529,0.41843 1.12877,0.8128 1.72461,1.18164 0.59584,0.36884 1.21257,0.71345 1.84766,1.0293 0.63508,0.31585 1.28835,0.60381 1.95898,0.86328 0.67064,0.25947 1.35807,0.48976 2.06055,0.68945 0.70248,0.19969 1.41976,0.36934 2.15039,0.50586 0.73063,0.13652 1.47538,0.24059 2.23047,0.31055 0.75508,0.07 1.52103,0.10547 2.29687,0.10547 0.77584,0 1.54179,-0.0355 2.29688,-0.10547 0.75508,-0.07 1.49983,-0.17403 2.23047,-0.31055 0.73063,-0.13652 1.4479,-0.30617 2.15039,-0.50586 0.70248,-0.19969 1.38991,-0.42998 2.06054,-0.68945 0.67064,-0.25947 1.3239,-0.54743 1.95899,-0.86328 0.63509,-0.31585 1.25181,-0.66046 1.84765,-1.0293 0.59585,-0.36884 1.17172,-0.76321 1.72461,-1.18164 0.5529,-0.41843 1.08359,-0.85958 1.58985,-1.32422 0.50626,-0.46463 0.98744,-0.95154 1.44336,-1.45898 0.45592,-0.50744 0.88523,-1.03518 1.28711,-1.58204 0.40188,-0.54685 0.77694,-1.11244 1.12109,-1.69531 0.34415,-0.58287 0.65869,-1.18333 0.94141,-1.79883 0.28271,-0.61549 0.53242,-1.24589 0.75,-1.89062 0.21758,-0.64473 0.40203,-1.30405 0.55078,-1.97461 0.14875,-0.67056 0.26166,-1.35387 0.33789,-2.04688 0.0762,-0.693 0.11523,-1.39536 0.11523,-2.10742 z"
         style="fill:#131722;stroke-width:6.53028;stroke-linejoin:round"
         id="path24" />
      <path
         d="m 241.81445,194.13281 h -0.28125 v 14.5293 c 0,0.93316 0.065,1.8499 0.13867,2.76367 0.0749,-0.91379 0.14258,-1.83049 0.14258,-2.76367 z"
         style="fill:#eceef4;stroke-width:11.6384;stroke-linejoin:round"
         id="path20" />
      <path
         d="m 310.36328,194.13281 h -16.94336 v 10.10938 c 0,0.71205 -0.039,1.41441 -0.11523,2.10742 -0.0762,0.693 -0.19109,1.37631 -0.33985,2.04687 -0.14875,0.67057 -0.3332,1.32793 -0.55078,1.97266 -0.21758,0.64473 -0.46728,1.27708 -0.75,1.89258 -0.28271,0.61549 -0.59726,1.214 -0.9414,1.79687 -0.34415,0.58288 -0.71922,1.15042 -1.1211,1.69727 -0.40188,0.54685 -0.83119,1.07459 -1.28711,1.58203 -0.45592,0.50744 -0.9371,0.99435 -1.44336,1.45898 -0.50625,0.46464 -1.03694,0.90579 -1.58984,1.32422 -0.5529,0.41844 -1.12877,0.8128 -1.72461,1.18164 -0.59584,0.36884 -1.21257,0.71345 -1.84766,1.0293 -0.63508,0.31585 -1.28835,0.60381 -1.95898,0.86328 -0.67063,0.25947 -1.35806,0.48976 -2.06055,0.68946 -0.70248,0.19969 -1.41975,0.36933 -2.15039,0.50585 -0.73063,0.13653 -1.47538,0.24059 -2.23047,0.31055 -0.75508,0.07 -1.52103,0.10547 -2.29687,0.10547 -0.77584,0 -1.54179,-0.0355 -2.29688,-0.10547 -0.75508,-0.07 -1.49983,-0.17402 -2.23047,-0.31055 -0.73063,-0.13652 -1.4479,-0.30616 -2.15039,-0.50585 -0.70248,-0.1997 -1.38991,-0.42999 -2.06054,-0.68946 -0.67064,-0.25947 -1.3239,-0.54743 -1.95899,-0.86328 -0.63508,-0.31585 -1.25181,-0.66046 -1.84765,-1.0293 -0.59584,-0.36884 -1.17171,-0.7632 -1.72461,-1.18164 -0.5529,-0.41843 -1.08164,-0.85958 -1.58789,-1.32422 -0.50626,-0.46463 -0.9894,-0.95154 -1.44532,-1.45898 -0.45591,-0.50744 -0.88522,-1.03518 -1.28711,-1.58203 -0.40188,-0.54685 -0.77694,-1.11439 -1.12109,-1.69727 -0.34414,-0.58287 -0.65674,-1.18138 -0.93945,-1.79687 -0.28271,-0.6155 -0.53437,-1.24785 -0.75196,-1.89258 -0.21758,-0.64473 -0.40202,-1.30209 -0.55078,-1.97266 -0.14875,-0.67056 -0.26166,-1.35387 -0.33789,-2.04687 -0.0762,-0.69301 -0.11523,-1.39537 -0.11523,-2.10742 v -10.10938 h -6.79102 v 14.5293 c 0,0.93318 -0.0677,1.84988 -0.14258,2.76367 0.0194,0.24089 0.0127,0.4891 0.0371,0.72852 0.11708,1.14761 0.29302,2.27822 0.52149,3.38867 0.22847,1.11045 0.50956,2.19991 0.84375,3.26758 0.33419,1.06766 0.72007,2.11355 1.1543,3.13281 0.43422,1.01926 0.91673,2.01133 1.44531,2.97656 0.52858,0.96524 1.10344,1.90301 1.7207,2.8086 0.61726,0.90558 1.27826,1.78077 1.97852,2.62109 0.70025,0.84032 1.43922,1.64658 2.21679,2.41601 0.77758,0.76944 1.59415,1.50044 2.44336,2.19336 0.84921,0.69293 1.73132,1.34624 2.64649,1.95704 0.91516,0.61079 1.86244,1.18007 2.83789,1.70312 0.97544,0.52305 1.97972,1.00001 3.00976,1.42969 1.03005,0.42968 2.08511,0.81189 3.16407,1.14258 1.07896,0.33069 2.18249,0.60985 3.30468,0.83593 1.1222,0.22608 2.26408,0.39978 3.42383,0.51563 1.15976,0.11585 2.33767,0.17383 3.5293,0.17383 1.19163,0 2.36759,-0.058 3.52734,-0.17383 1.15976,-0.11585 2.30163,-0.28955 3.42383,-0.51563 1.1222,-0.22608 2.22573,-0.50524 3.30469,-0.83593 1.07896,-0.33069 2.13402,-0.7129 3.16406,-1.14258 1.03004,-0.42968 2.03432,-0.90664 3.00977,-1.42969 0.97544,-0.52305 1.92272,-1.09233 2.83789,-1.70312 0.91516,-0.6108 1.79727,-1.26411 2.64648,-1.95704 0.84921,-0.69292 1.66579,-1.42392 2.44336,-2.19336 0.77757,-0.76943 1.51654,-1.57569 2.2168,-2.41601 0.70025,-0.84032 1.36125,-1.71551 1.97851,-2.62109 0.61726,-0.90559 1.19212,-1.84336 1.72071,-2.8086 0.52858,-0.96523 1.01108,-1.9573 1.44531,-2.97656 0.43422,-1.01926 0.82011,-2.06515 1.1543,-3.13281 0.33418,-1.06767 0.61527,-2.15713 0.84375,-3.26758 0.22847,-1.11045 0.4044,-2.24106 0.52148,-3.38867 0.11708,-1.14762 0.17578,-2.31303 0.17578,-3.49219 z"
         style="fill:#eceef4;stroke-width:11.6384;stroke-linejoin:round"
         id="path16" />
      <path
         d="m 293.41992,194.13281 h -44.81445 v 10.10938 c 0,0.71205 0.039,1.41441 0.11523,2.10742 0.0762,0.693 0.18914,1.37631 0.33789,2.04687 0.14876,0.67057 0.3332,1.32793 0.55078,1.97266 0.21759,0.64473 0.46925,1.27708 0.75196,1.89258 0.28271,0.61549 0.59531,1.214 0.93945,1.79687 0.34415,0.58288 0.71921,1.15042 1.12109,1.69727 0.40189,0.54685 0.8312,1.07459 1.28711,1.58203 0.45592,0.50744 0.93906,0.99435 1.44532,1.45898 0.50625,0.46464 1.03499,0.90579 1.58789,1.32422 0.5529,0.41844 1.12877,0.8128 1.72461,1.18164 0.59584,0.36884 1.21257,0.71345 1.84765,1.0293 0.63509,0.31585 1.28835,0.60381 1.95899,0.86328 0.67063,0.25947 1.35806,0.48976 2.06054,0.68946 0.70249,0.19969 1.41976,0.36933 2.15039,0.50585 0.73064,0.13653 1.47539,0.24059 2.23047,0.31055 0.75509,0.07 1.52104,0.10547 2.29688,0.10547 0.77584,0 1.54179,-0.0355 2.29687,-0.10547 0.75509,-0.07 1.49984,-0.17402 2.23047,-0.31055 0.73064,-0.13652 1.44791,-0.30616 2.15039,-0.50585 0.70249,-0.1997 1.38992,-0.42999 2.06055,-0.68946 0.67063,-0.25947 1.3239,-0.54743 1.95898,-0.86328 0.63509,-0.31585 1.25182,-0.66046 1.84766,-1.0293 0.59584,-0.36884 1.17171,-0.7632 1.72461,-1.18164 0.5529,-0.41843 1.08359,-0.85958 1.58984,-1.32422 0.50626,-0.46463 0.98744,-0.95154 1.44336,-1.45898 0.45592,-0.50744 0.88523,-1.03518 1.28711,-1.58203 0.40188,-0.54685 0.77695,-1.11439 1.1211,-1.69727 0.34414,-0.58287 0.65869,-1.18138 0.9414,-1.79687 0.28272,-0.6155 0.53242,-1.24785 0.75,-1.89258 0.21758,-0.64473 0.40203,-1.30209 0.55078,-1.97266 0.14876,-0.67056 0.26362,-1.35387 0.33985,-2.04687 0.0762,-0.69301 0.11523,-1.39537 0.11523,-2.10742 z"
         style="fill:#131722;stroke-width:6.53028;stroke-linejoin:round"
         id="path18" />
    </g>
    <path
       id="rect2-1-0"
       style="fill:#eceef4;fill-opacity:1;stroke:none;stroke-width:9.1;stroke-linejoin:round;stroke-dasharray:none"
       d="m 371.31763,472.48444 a 119.50413,119.50413 45.485733 0 1 118.48674,120.51294 l 0,71.95416 a 50.776196,50.776196 135 0 1 -50.7762,50.7762 H 301.58089 a 50.776196,50.776196 45 0 1 -50.7762,-50.7762 V 592.99738 A 120.51294,120.51294 135 0 1 371.31763,472.48444 Z"
       inkscape:path-effect="#path-effect12"
       inkscape:original-d="m 250.80469,472.48444 h 238.99968 v 243.2433 H 250.80469 Z"
       transform="translate(-125.04149)"
       inkscape:label="Puraka / Estomago" />
    <g
       id="g27"
       inkscape:label=" Jinchunaka / Orejas">
      <path
         style="fill:#9dacc4;fill-opacity:1;stroke:none;stroke-width:9.1;stroke-linejoin:round;stroke-dasharray:none;stroke-opacity:1"
         d="M 348.9043,56.582031 452.79796,40.999378 a 24.509618,24.509618 40.734994 0 1 28.14507,24.2385 v 70.005742 z"
         id="path13"
         inkscape:path-effect="#path-effect13"
         inkscape:original-d="M 348.9043,56.582031 480.94303,36.777996 c 0,26.694714 0,65.643674 0,98.465624 z"
         sodipodi:nodetypes="cccc"
         transform="matrix(0.8843371,0,0,0.8843371,-10.548587,10.710749)" />
      <use
         x="0"
         y="0"
         xlink:href="#path13"
         id="use13"
         transform="matrix(-1,0,0,1,552.94049,0.4599563)" />
    </g>
    <path
       style="fill:#db848c;fill-opacity:1;stroke:none;stroke-width:10;stroke-linejoin:round;stroke-dasharray:none;stroke-opacity:1"
       d="m 380.44799,263.35002 -19.89455,29.34733 a 15.515395,15.515395 0.42214221 0 1 -25.81213,-0.19018 l -19.1447,-29.15715 z"
       id="path14"
       inkscape:path-effect="#path-effect14"
       inkscape:original-d="m 380.44799,263.35002 -32.94314,48.59587 -31.90824,-48.59587 z"
       transform="matrix(1,0,0,1.1137672,-106,-32.074039)"
       inkscape:label="Nasa / Nariz" />
    <path
       style="fill:none;fill-opacity:1;stroke:#9dacc4;stroke-width:60;stroke-linecap:round;stroke-linejoin:round;stroke-dasharray:none;stroke-opacity:1"
       d="m 507.49122,676.45784 55.62597,0.42497 c 11.35891,0.0868 22.76238,0.11004 34.01456,-1.44586 11.25218,-1.55591 22.35049,-4.71413 32.36789,-10.06989 10.01739,-5.35576 18.88597,-12.90512 25.55427,-22.1011 6.66831,-9.19598 11.0957,-19.97674 13.00552,-31.17428 3.81966,-22.39509 -2.71369,-45.46 -13.18962,-65.61898 -10.47592,-20.15898 -24.64635,-38.25012 -34.72744,-58.60942 -10.30068,-20.80277 -16.08312,-44.34235 -13.15397,-67.37014 1.46458,-11.5139 5.10975,-22.79044 11.04616,-32.7641 5.93641,-9.97365 14.19002,-18.61786 24.11286,-24.63883 9.44747,-5.73253 20.35432,-9.03759 31.39471,-9.51342 11.04039,-0.47583 22.19116,1.87857 32.09681,6.777 9.90566,4.89843 18.54542,12.33062 24.86904,21.39309 6.32361,9.06248 10.31781,19.73624 11.49707,30.72378"
       id="path25"
       inkscape:path-effect="#path-effect26"
       inkscape:original-d="m 507.49122,676.45784 55.62597,0.42497 c 66.34215,0.50684 85.24355,-93.32261 57.02518,-189.01953 -17.60141,-59.69166 22.67187,-75.31539 22.00505,-124.77307 -0.31837,-23.61301 99.85763,-65.19889 99.85763,49.38045"
       sodipodi:nodetypes="csssc"
       transform="translate(-68)"
       inkscape:label="wich'inka / Cola" />
  </g>
</svg>
