<svg id="Layer_1" data-name="Layer 1" xmlns="http://www.w3.org/2000/svg" viewBox="0 0 120 120"><title>Cute Animals Vector Collection - Scene 12</title><path d="M70.47,21.52s5.57-7.38,17.73-7c0,0,2.23,4.55,1.7,13.16s-8.06,7.67-8.06,7.67Z" fill="#c78080"/><path d="M88.11,14.48c-6.85,3.44-11.26,9.91-12.94,12.74l-4.7-5.7S76,14.17,88.11,14.48Z" fill="#f8a7a7"/><path d="M88.11,14.48c-6.85,3.44-11.26,9.91-12.94,12.74l-4.7-5.7S76,14.17,88.11,14.48Z" fill="#f8a7a7"/><path d="M90.45,75.24,78.28,60H41.72L29.55,75.24c-7.86,9.85-7.41,24,3.25,32.83a38.71,38.71,0,0,0,5.54,3.82v4.25H83.11v-2.65l-2.68-.61C97.43,105,99.72,86.86,90.45,75.24Z" fill="#c78080"/><path d="M78.94,116.14H86s1.22-8.84-6.8-8.84Z" fill="#4f3636"/><path d="M41.06,116.14H34s-1.22-8.84,6.8-8.84Z" fill="#4f3636"/><path d="M76.66,24.91s5-7.07,9.78-9.22" fill="none" stroke="#160014" stroke-linecap="round" stroke-linejoin="round" stroke-width="1.13"/><path d="M47.16,21.52s-5.57-7.38-17.73-7c0,0-2.22,4.55-1.7,13.16s8.06,7.67,8.06,7.67Z" fill="#c78080"/><path d="M29.53,14.48c6.84,3.44,11.25,9.91,12.93,12.74l4.7-5.7S41.62,14.17,29.53,14.48Z" fill="#f8a7a7"/><path d="M29.53,14.48c6.84,3.44,11.25,9.91,12.93,12.74l4.7-5.7S41.62,14.17,29.53,14.48Z" fill="#f8a7a7"/><path d="M41,24.91s-5-7.07-9.78-9.22" fill="none" stroke="#160014" stroke-linecap="round" stroke-linejoin="round" stroke-width="1.13"/><path d="M60.09,75.8h-.18C32.47,75.73,23.39,58.36,26,48.48s7-12.57,13.59-20.83,13.81-9.14,20.32-9.16h.18c6.51,0,13.76,1,20.32,9.16S91.39,38.58,94,48.48,87.53,75.73,60.09,75.8Z" fill="#f8a7a7"/><path d="M72.4,46.45s-4.76-9.93.69-12,8.8,8.1,8.8,8.1Z" fill="#160014"/><circle cx="83.76" cy="52.93" r="4.44" fill="#c78080"/><circle cx="35.69" cy="52.93" r="4.44" fill="#c78080"/><ellipse cx="76.37" cy="37.03" rx="1.1" ry="1.72" fill="#fff"/><path d="M73.36,48.48a12.67,12.67,0,0,1-1.17-5" fill="none" stroke="#160014" stroke-linecap="round" stroke-linejoin="round" stroke-width="1.13"/><path d="M47.54,46.45s4.76-9.93-.7-12-8.8,8.1-8.8,8.1Z" fill="#160014"/><path d="M46.58,48.48a12.76,12.76,0,0,0,1.16-5" fill="none" stroke="#160014" stroke-linecap="round" stroke-linejoin="round" stroke-width="1.13"/><path d="M67.43,50.58a7.42,7.42,0,0,1-2.9,2.34H55.47a7.49,7.49,0,0,1-2.9-2.34C50,46.91,52.24,41.29,60,41.29S70,46.91,67.43,50.58Z" fill="#b07777"/><ellipse cx="57.13" cy="48.52" rx="1.86" ry="2.55" fill="#4f3636"/><ellipse cx="62.87" cy="48.52" rx="1.86" ry="2.55" fill="#4f3636"/><ellipse cx="47.16" cy="37.03" rx="1.1" ry="1.72" fill="#fff"/><path d="M61.38,59.72a7.83,7.83,0,0,0,2.47.49,4.4,4.4,0,0,0,2-.54,2.8,2.8,0,0,0,1.27-1.32,6.8,6.8,0,0,0,.37-2.45v-.1a.57.57,0,0,1,.58-.57.63.63,0,0,1,.45.22,4.58,4.58,0,0,1,1,3.44,4.36,4.36,0,0,1-2.31,3.26,5.15,5.15,0,0,1-3.77.47,4.77,4.77,0,0,1-2.86-2.1.57.57,0,0,1,.67-.84Z" fill="#160014"/><polygon points="63.66 111.31 63.66 115.84 71.36 115.84 73.14 111.31 63.66 111.31" fill="#4f3636"/><path d="M75.88,102.29l-4.36,13.55h-8V102.29" fill="none" stroke="#160014" stroke-linecap="round" stroke-linejoin="round" stroke-width="1.13"/><polygon points="56.5 111.31 56.5 115.84 48.8 115.84 47.02 111.31 56.5 111.31" fill="#4f3636"/><line x1="63.5" y1="111.31" x2="73.3" y2="111.31" fill="none" stroke="#160014" stroke-linecap="round" stroke-linejoin="round" stroke-width="1.13"/><path d="M44.12,102.29l4.36,13.55h8V102.29" fill="none" stroke="#160014" stroke-linecap="round" stroke-linejoin="round" stroke-width="1.13"/><line x1="56.5" y1="111.31" x2="46.71" y2="111.31" fill="none" stroke="#160014" stroke-linecap="round" stroke-linejoin="round" stroke-width="1.13"/></svg>