<svg id="Layer_1" data-name="Layer 1" xmlns="http://www.w3.org/2000/svg" viewBox="0 0 120 120"><title>Cute Animals Vector Collection - Scene 11</title><path d="M86.69,92.33l-2,6.23-4.87,15.11H40.17l-4.86-15.1-2-6.25a27.05,27.05,0,0,1,.82-13.42L40.2,60l1.16-3.61H78.64L79.8,60,85.88,78.9A27,27,0,0,1,86.69,92.33Z" fill="#ccc"/><path d="M42.22,95.67c.42,1.09.88,2.16,1.39,3.19,5.77,11.85,8,14.29,8,14.29h6.85s5.14-.12,5-5-6.87-4.29-6.87-4.29-3.41-7.67-2.52-20.79" fill="none" stroke="#160014" stroke-linecap="round" stroke-linejoin="round" stroke-width="1.13"/><path d="M60,104.19a10.8,10.8,0,0,1,3.42-.33s3.41-7.67,2.52-20.79" fill="none" stroke="#160014" stroke-linecap="round" stroke-linejoin="round" stroke-width="1.13"/><path d="M77.78,95.67c-.42,1.09-.88,2.16-1.39,3.19-5.77,11.85-8,14.29-8,14.29H59.08" fill="none" stroke="#160014" stroke-linecap="round" stroke-linejoin="round" stroke-width="1.13"/><path d="M73.15,30.63s-1.3-6.53,5.66-10.54S93,22.76,93.5,26.34,85,35.42,85,35.42l-6.19.78Z" fill="#000103"/><path d="M77.86,33.5s-2.1-10.71,6.35-11.84,11,5.92,9.41,10.45-10.1,5.4-10.1,5.4Z" fill="#0d1e2b"/><path d="M77.86,33.5s-1.79-7.33,3-10.59" fill="none" stroke="#000103" stroke-linecap="round" stroke-linejoin="round" stroke-width="1.13"/><path d="M45.81,30.63s1.3-6.53-5.66-10.54S26,22.76,25.46,26.34,34,35.42,34,35.42l6.19.78Z" fill="#000103"/><path d="M41.11,33.5s2.09-10.71-6.36-11.84-11,5.92-9.41,10.45,10.1,5.4,10.1,5.4Z" fill="#0d1e2b"/><path d="M41.11,33.5s1.78-7.33-3-10.59" fill="none" stroke="#000103" stroke-linecap="round" stroke-linejoin="round" stroke-width="1.13"/><path d="M88,41.75c-4.18-6.21-10.92-16.08-28-16.08S36.19,35.54,32,41.75s-12.19,21.77-2.55,30S60,79.55,60,79.55s20.9.46,30.54-7.78S92.17,48,88,41.75Z" fill="#eaeaea"/><ellipse cx="60" cy="66.45" rx="14.2" ry="11.82" fill="#eaeaea"/><path d="M59.16,65.47a5.78,5.78,0,0,1-.59-1.74,7.38,7.38,0,0,1-.11-1.68,7.22,7.22,0,0,1,.23-1.66,6,6,0,0,1,.69-1.7h0a.28.28,0,0,1,.37-.09.23.23,0,0,1,.07.07,4.5,4.5,0,0,1,.81,1.72,6.12,6.12,0,0,1,.17,1.75,6.48,6.48,0,0,1-.3,1.74,4.64,4.64,0,0,1-.9,1.65.26.26,0,0,1-.38,0A.27.27,0,0,1,59.16,65.47Z" fill="#000103"/><path d="M59.39,55.63s1.92-2.7,3.75-1.57.43,5.49-3.75,6.71a7.7,7.7,0,0,1-4.09-4.36C54.25,53.28,58.35,52.75,59.39,55.63Z" fill="#000103"/><ellipse cx="75.41" cy="49.73" rx="6.33" ry="9.67" transform="translate(-13.74 35.18) rotate(-24.13)" fill="#000103"/><ellipse cx="44.09" cy="49.73" rx="9.67" ry="6.33" transform="translate(-19.32 69.63) rotate(-65.87)" fill="#000103"/><circle cx="73.85" cy="45.87" r="1.56" fill="#fff"/><circle cx="45.64" cy="45.87" r="1.56" fill="#fff"/><path d="M56,62.16A7.17,7.17,0,0,0,57.78,64a4.19,4.19,0,0,0,2.14.65,2.76,2.76,0,0,0,1.92-.57,6.46,6.46,0,0,0,1.52-2l0-.07a.49.49,0,0,1,.65-.2.52.52,0,0,1,.25.39,4.6,4.6,0,0,1-1,3.32A4.2,4.2,0,0,1,59.82,67a5,5,0,0,1-3.36-1.45A4.8,4.8,0,0,1,55,62.41a.49.49,0,0,1,.45-.51.48.48,0,0,1,.41.19Z" fill="#000103"/><path d="M79.81,113.66h7.7s1.32-9.59-7.37-9.59Z" fill="#000103"/><path d="M40.19,113.66h-7.7s-1.32-9.59,7.37-9.59Z" fill="#000103"/></svg>