<svg id="Layer_1" data-name="Layer 1" xmlns="http://www.w3.org/2000/svg" viewBox="0 0 120 120"><title>Cute Animals Vector Collection - Scene 13</title><path d="M87.47,103.23,76.59,116.85H66.74a6,6,0,0,1-3-.79,4.21,4.21,0,0,1-2.37-3.16c-.24-3.51,1.45-3,.83-3.38a3.5,3.5,0,0,0-2-.57c-.71,0-1.63,0-2,.57-.22.43,1.54.7.84,3.52a4.59,4.59,0,0,1-1.49,2.39,5.84,5.84,0,0,1-3.9,1.42H43.91L33,103.23c-10.9-13.64-3.94-36.57,27.22-36.57,11.06,0,19.07,2.89,24.32,7.22C94.1,81.76,94.5,94.43,87.47,103.23Z" fill="#806c6a"/><path d="M76.58,116.85h6.35S84,109,76.85,109Z" fill="#574948"/><path d="M43.92,116.85H37.58s-1.09-7.9,6.07-7.9Z" fill="#574948"/><path d="M74.89,36.25s0-16.93,6.82-25.29C94.42-4.63,98.52,9,96.83,17.15c-3.2,15.54-16.17,25.34-16.17,25.34Z" fill="#947e7a"/><path d="M76.88,37.72s0-7.93,3.19-11.84c6-7.31,7.87-.94,7.08,2.89-1.5,7.28-7.57,11.87-7.57,11.87Z" fill="#f8a7a7"/><path d="M76.88,37.72S76.82,31,79.57,26.56" fill="none" stroke="#160014" stroke-linecap="round" stroke-linejoin="round" stroke-width="1.13"/><path d="M45.11,36.25s0-16.93-6.82-25.29C25.58-4.63,21.48,9,23.17,17.15c3.2,15.54,16.17,25.34,16.17,25.34Z" fill="#947e7a"/><path d="M43.12,37.72s0-7.93-3.19-11.84c-6-7.31-7.87-.94-7.08,2.89,1.5,7.28,7.57,11.87,7.57,11.87Z" fill="#f8a7a7"/><path d="M43.12,37.72s.06-6.71-2.69-11.16" fill="none" stroke="#160014" stroke-linecap="round" stroke-linejoin="round" stroke-width="1.13"/><path d="M89.3,73.21A64.88,64.88,0,0,1,62.12,81.5c-.59,0-1.21.08-1.87.1s-1.28,0-1.86-.1A64.88,64.88,0,0,1,31.2,73.21C23,68.46,23.54,61.59,26.15,56.36a86.15,86.15,0,0,1,7.49-11.49s4.71-9.24,9.58-13.24S53.15,27.27,60,27.27h.59c6.8,0,11.85.35,16.73,4.36s9.58,13.24,9.58,13.24a85.08,85.08,0,0,1,7.49,11.49C97,61.59,97.49,68.46,89.3,73.21Z" fill="#947e7a"/><path d="M72.65,53.11s-4.76-9.93.7-12,8.79,8.1,8.79,8.1Z" fill="#160014"/><circle cx="84.29" cy="59.58" r="4.44" fill="#f8a7a7"/><circle cx="36.22" cy="59.58" r="4.44" fill="#f8a7a7"/><path d="M64,58.28s-.41,2.61-4,2.61H56.51" fill="none" stroke="#160014" stroke-linecap="round" stroke-linejoin="round" stroke-width="1.13"/><path d="M50.87,64s-1.4,4.7,3.57,5.22S59,65.42,59,65.42h0s-.4,4.36,4.56,3.83S67.13,64,67.13,64" fill="none" stroke="#160014" stroke-linecap="round" stroke-linejoin="round" stroke-width="1.13"/><ellipse cx="76.62" cy="43.69" rx="1.1" ry="1.72" fill="#fff"/><path d="M73.61,55.14a12.76,12.76,0,0,1-1.16-5" fill="none" stroke="#160014" stroke-linecap="round" stroke-linejoin="round" stroke-width="1.13"/><path d="M47.79,53.11s4.76-9.93-.7-12-8.79,8.1-8.79,8.1Z" fill="#160014"/><ellipse cx="43.82" cy="43.69" rx="1.1" ry="1.72" fill="#fff"/><path d="M46.83,55.14a12.76,12.76,0,0,0,1.16-5" fill="none" stroke="#160014" stroke-linecap="round" stroke-linejoin="round" stroke-width="1.13"/><path d="M41.4,103.47c2,5,7.13,12.77,7.13,12.77h6.13s4.59-.1,4.48-4.46S53,107.94,53,107.94,50.27,101.12,50.27,95" fill="none" stroke="#160014" stroke-linecap="round" stroke-linejoin="round" stroke-width="1.01"/><path d="M79.11,103.47c-2,5-7.14,12.77-7.14,12.77H65.85s-4.6-.1-4.48-4.46,6.14-3.84,6.14-3.84,2.73-6.82,2.73-12.93" fill="none" stroke="#160014" stroke-linecap="round" stroke-linejoin="round" stroke-width="1.01"/></svg>