<svg id="Layer_1" data-name="Layer 1" xmlns="http://www.w3.org/2000/svg" viewBox="0 0 120 120"><title>Cute Animals Vector Collection - Scene 15</title><path d="M78.26,114.25h7.1s1.22-8.84-6.79-8.84Z" fill="#3a3b3d"/><path d="M41.74,114.25h-7.1s-1.22-8.84,6.79-8.84Z" fill="#3a3b3d"/><path d="M87.22,100.37l-5.86,7.34A16.72,16.72,0,0,1,68.3,114h0c0-1.77-.82-3.2-1.8-3.2s-1.77,1.43-1.79,3.2H55.32c0-1.77-.81-3.2-1.79-3.2s-1.77,1.43-1.8,3.2h0a16.72,16.72,0,0,1-13.06-6.28l-5.86-7.34C21.88,86.73,28.84,63.8,60,63.8c11.06,0,19.07,2.89,24.32,7.23C93.85,78.9,94.25,91.57,87.22,100.37Z" fill="#eaeaea"/><path d="M88.58,47.09c-2.71-3.53-2.93-3.71-8.28-16.31-5.9-13.92-15-13.92-20.3-13.92s-14.4,0-20.3,13.92c-5.35,12.6-5.57,12.78-8.28,16.31s-4,12.08,4,18.66c7.66,6.22,13,7.9,24.53,7.9S76.87,72,84.53,65.75C92.62,59.17,91.2,50.52,88.58,47.09Z" fill="#ccc"/><path d="M64.41,105.88h8.68l-.28,7.91H68.44s0-3-2-3-2,3-2,3H61.42S60.45,108.73,64.41,105.88Z" fill="#3a3b3d"/><path d="M55.81,105.88H47.13l.28,7.91h4.36s0-3,2-3,2,3,2,3H58.8S59.77,108.73,55.81,105.88Z" fill="#3a3b3d"/><line x1="55.81" y1="105.88" x2="47.13" y2="105.88" fill="none" stroke="#160014" stroke-linecap="round" stroke-linejoin="round" stroke-width="1.13"/><path d="M46.84,93.38c.11,10.68.52,20.41.52,20.41h4.37c.23-1.72,1-3,2-3s1.73,1.28,2,3h3.11s.78-5.64-3-7.91c-.26-2.95-.5-6.51-.6-10.3" fill="none" stroke="#160014" stroke-linecap="round" stroke-linejoin="round" stroke-width="1.13"/><path d="M65,95.58c-.09,3.79-.34,7.35-.59,10.3-3.77,2.27-3,7.91-3,7.91h3.11c.22-1.72,1-3,2-3s1.74,1.28,2,3h4.37s.42-9.73.53-20.41" fill="none" stroke="#160014" stroke-linecap="round" stroke-linejoin="round" stroke-width="1.13"/><path d="M42.84,23.15v.34a2,2,0,0,1-.1-.21Z" fill="#eaeaea"/><path d="M46.37,30.7h-.19a.78.78,0,0,1,0-.14A1.22,1.22,0,0,0,46.37,30.7Z" fill="#eaeaea"/><path d="M42.84,23.15v.34a2,2,0,0,1-.1-.21Z" fill="#eaeaea"/><path d="M46.37,30.7h-.19a.78.78,0,0,1,0-.14A1.22,1.22,0,0,0,46.37,30.7Z" fill="#eaeaea"/><line x1="64.41" y1="105.88" x2="73.09" y2="105.88" fill="none" stroke="#160014" stroke-linecap="round" stroke-linejoin="round" stroke-width="1.13"/><path d="M72.52,31.91c0-10.37,19.84-11.38,16.89-4.69-1.77,4-5.92,6.54-12.28,6.78-6.66.24-5.42,2.4-5.42,2.4A17,17,0,0,0,72.52,31.91Z" fill="#e7abab"/><path d="M71.18,33.71C71.18,27.63,87,24,85.24,27.9c-1,2.37-6.49,5.72-10.22,5.86-3.91.14-2.19,2-2.19,2S71.18,34.92,71.18,33.71Z" fill="#c78080"/><path d="M72.54,31.32s6.77-6.55,13.83-6.27" fill="none" stroke="#160014" stroke-linecap="round" stroke-linejoin="round" stroke-width="1.13"/><path d="M46.62,31.91c0-10.37-19.84-11.38-16.89-4.69,1.78,4,5.92,6.54,12.28,6.78,6.67.24,5.43,2.4,5.43,2.4A16.77,16.77,0,0,1,46.62,31.91Z" fill="#e7abab"/><path d="M48,33.71C48,27.63,32.18,24,33.91,27.9c1,2.37,6.49,5.72,10.22,5.86,3.9.14,2.18,2,2.18,2S48,34.92,48,33.71Z" fill="#c78080"/><path d="M46.6,31.32s-6.77-6.55-13.82-6.27" fill="none" stroke="#160014" stroke-linecap="round" stroke-linejoin="round" stroke-width="1.13"/><path d="M64.6,73.89H55.4c-15.13,0-23.51-14.24-18-26.44l5.48-12.06C45.71,29.25,52.63,25.32,60,25.32h0c7.37,0,14.29,3.93,17.08,10.07l5.48,12.06C88.1,59.65,79.73,73.89,64.6,73.89Z" fill="#e7abab"/><path d="M56.53,67.18A7.89,7.89,0,0,0,58.31,69a4.32,4.32,0,0,0,2,.69,2.82,2.82,0,0,0,1.79-.38,6.81,6.81,0,0,0,1.68-1.82l.06-.09a.58.58,0,0,1,.8-.14.56.56,0,0,1,.25.43,4.57,4.57,0,0,1-1.11,3.4A4.39,4.39,0,0,1,60,72.46a5.12,5.12,0,0,1-3.39-1.72,4.76,4.76,0,0,1-1.2-3.33.57.57,0,0,1,.6-.55.55.55,0,0,1,.43.22Z" fill="#160014"/><circle cx="69.8" cy="41.2" r="4.77" fill="#160014"/><circle cx="71.93" cy="39.39" r="1.16" fill="#fff"/><circle cx="50.2" cy="41.2" r="4.77" fill="#160014"/><circle cx="52.32" cy="39.39" r="1.16" fill="#fff"/><path d="M56.87,60.66a2.64,2.64,0,0,0-5.28,0Z" fill="#160014"/><path d="M68.41,60.66a2.64,2.64,0,0,0-5.28,0Z" fill="#160014"/><path d="M77.43,23.45c-1.39,6.45-7.68,12-17.16,12a22.66,22.66,0,0,1-9.68-2.08,2.68,2.68,0,0,1-1.43.4A2.73,2.73,0,0,1,46.43,31c0-.1,0-.2,0-.3h.18c-.05-.05-.11-.09-.16-.15a.78.78,0,0,0,0,.14A4.7,4.7,0,0,1,43,23.28a2,2,0,0,0,.1.21v-.34a1.13,1.13,0,0,0-.1.13A8.35,8.35,0,0,1,54.87,12.72,6.5,6.5,0,0,1,67.11,12a4.7,4.7,0,0,1,6.51,3.51C77.36,14.83,78.62,17.93,77.43,23.45Z" fill="#eaeaea"/></svg>