<svg id="Layer_1" data-name="Layer 1" xmlns="http://www.w3.org/2000/svg" viewBox="0 0 120 120"><title>Cute Animals Vector Collection - Scene 16</title><path d="M77.3,32.1c3.76-4.7,2.14-6.36,2.69-13.37S90.73,9.86,94.91,9.88,100.6,32.62,80,36Z" fill="#a7abaa"/><path d="M95,9.88c-4.09,1.48-7.76,4.65-8.31,8.84A16.38,16.38,0,0,1,81,29.63l-1.66-.78c1.07-2.7.29-5,.7-10.12.55-7,10.74-8.87,14.92-8.85Z" fill="#ccc"/><path d="M95,9.88c-4.09,1.48-7.76,4.65-8.31,8.84A16.38,16.38,0,0,1,81,29.63l-1.66-.78c1.07-2.7.29-5,.7-10.12.55-7,10.74-8.87,14.92-8.85Z" fill="#ccc"/><path d="M67.41,7.26a25.39,25.39,0,0,1,7.14,2.05L70.84,23.55,48.67,24.74,47,21.56,44,9.31a29.05,29.05,0,0,1,14.1-2.69l1.66,5.48,2-5.39a7.38,7.38,0,0,1,3.72.36l.7,3.52Z" fill="#2b2b2a"/><path d="M77.54,116.32H41l-7.09-22C28.81,78.5,39.18,60.19,59.26,60.19h0c20.08,0,30.45,18.31,25.37,34.09Z" fill="#b4b8b7"/><path d="M85.87,87.6a26.07,26.07,0,0,1-.53,4,25.66,25.66,0,0,1-.71,2.67l-.31,1-.47,1.45L83,99.24l-.46,1.41-2.18,6.78L80,108.65l-.9,2.78-.37,1.16h0l-1.21,3.73H41l-7.09-22c-5.08-15.78,5.3-34.09,25.37-34.09,8.33,0,15,3.16,19.58,8a24.92,24.92,0,0,1,3.85,5.3,25.2,25.2,0,0,1,1.64,3.63,26.57,26.57,0,0,1,1.43,6.18c.06.57.1,1.15.13,1.72A25.06,25.06,0,0,1,85.87,87.6Z" fill="none"/><polygon points="63.09 111.56 63.09 116.1 70.79 116.1 72.57 111.56 63.09 111.56" fill="#2b2b2a"/><path d="M75.31,102.54,71,116.1h-8V102.54" fill="none" stroke="#160014" stroke-linecap="round" stroke-linejoin="round" stroke-width="1.13"/><path d="M86,21.91s-.6,3.85-6,9.4" fill="none" stroke="#160014" stroke-linecap="round" stroke-linejoin="round" stroke-width="1.13"/><path d="M42.7,32.1c-3.76-4.7-2.14-6.36-2.69-13.37S29.27,9.86,25.09,9.88,19.4,32.62,40,36Z" fill="#a7abaa"/><path d="M25.05,9.88c4.09,1.48,7.76,4.65,8.31,8.84a16.38,16.38,0,0,0,5.69,10.91l1.66-.78c-1.07-2.7-.29-5-.7-10.12-.55-7-10.74-8.87-14.92-8.85Z" fill="#ccc"/><path d="M25.05,9.88c4.09,1.48,7.76,4.65,8.31,8.84a16.38,16.38,0,0,0,5.69,10.91l1.66-.78c-1.07-2.7-.29-5-.7-10.12-.55-7-10.74-8.87-14.92-8.85Z" fill="#ccc"/><path d="M34,21.91s.6,3.85,6,9.4" fill="none" stroke="#160014" stroke-linecap="round" stroke-linejoin="round" stroke-width="1.13"/><path d="M85.85,37.3C84.57,32,81.9,26.38,76,23.36c-5.73-2.92-15.35-2.47-16-2.44s-10.26-.48-16,2.44c-5.92,3-8.6,8.59-9.87,13.94S30.07,49.49,31.93,59,46.62,72.35,60,72.37H60c13.33,0,26.17-3.85,28-13.36S87.13,42.64,85.85,37.3Z" fill="#ccc"/><path d="M41.57,50.77a13.28,13.28,0,0,0-2.85-.43,14.59,14.59,0,0,0-2.81.14A13.74,13.74,0,0,0,31.31,52q0-1.57.21-3l.5-.07c.26,0,.53,0,.79-.07a15.25,15.25,0,0,1,3.1.1,16.11,16.11,0,0,1,3,.67A13.62,13.62,0,0,1,41.57,50.77Z" fill="none"/><path d="M41.34,54.46a13,13,0,0,0-2.79.71A14.82,14.82,0,0,0,36,56.38a13.55,13.55,0,0,0-3.89,3.44,7.91,7.91,0,0,1-.19-.81c-.17-.84-.29-1.66-.39-2.46l.26-.15c.22-.14.47-.24.7-.36a15.06,15.06,0,0,1,2.9-1.11,15.41,15.41,0,0,1,3-.53A13.91,13.91,0,0,1,41.34,54.46Z" fill="none"/><path d="M42.72,58.84a12.47,12.47,0,0,0-2.45,1.5,14,14,0,0,0-2.07,1.91,13.75,13.75,0,0,0-1.63,2.2,11.5,11.5,0,0,0-.68,1.3,13.41,13.41,0,0,1-1.88-2l.17-.19c.17-.2.38-.37.56-.55A15.33,15.33,0,0,1,37.19,61a14.91,14.91,0,0,1,2.69-1.39A13.27,13.27,0,0,1,42.72,58.84Z" fill="none"/><path d="M45.53,22.69c.59-.22,1.2-.42,1.82-.59-.09.65-.15,1.31-.2,2-.09,1.17-.11,2.38-.12,3.58V31.3a.07.07,0,0,1-.06.07.06.06,0,0,1-.06-.05,38.17,38.17,0,0,1-1.32-7.24C45.56,23.62,45.53,23.16,45.53,22.69Z" fill="none"/><path d="M53.4,21.07a17.21,17.21,0,0,0-2,4.43c-.36,1.12-.67,2.29-1,3.46l-.87,3.54a.07.07,0,0,1-.08,0,.06.06,0,0,1-.05-.06,38.71,38.71,0,0,1,.44-7.35,19,19,0,0,1,1-3.67l0-.09C51.75,21.24,52.59,21.15,53.4,21.07Z" fill="none"/><path d="M55.32,34.77a8.59,8.59,0,0,0-.18,3.16A13.93,13.93,0,0,0,56,41.18a53.47,53.47,0,0,0,3,6.42.05.05,0,0,1,0,.08.08.08,0,0,1-.08,0,27.53,27.53,0,0,1-4.38-5.84,13.6,13.6,0,0,1-1.39-3.55,9.82,9.82,0,0,1-.11-4,16.52,16.52,0,0,1,1.17-3.64c.44-1.06.85-2.15,1.25-3.25.79-2.16,1.54-4.37,2.47-6.54h1.12a.45.45,0,0,1,0,.11,25.53,25.53,0,0,1-.44,3.63,31.1,31.1,0,0,1-.86,3.55,29.13,29.13,0,0,1-1.27,3.48A16.46,16.46,0,0,0,55.32,34.77Z" fill="none"/><path d="M67,34.31a10,10,0,0,1-.11,4,13.6,13.6,0,0,1-1.39,3.55,27.53,27.53,0,0,1-4.38,5.84.07.07,0,0,1-.09,0,0,0,0,0,1,0-.07,53.47,53.47,0,0,0,3-6.42,13.43,13.43,0,0,0,.84-3.25,8.38,8.38,0,0,0-.17-3.16,16.46,16.46,0,0,0-1.19-3.11,29.13,29.13,0,0,1-1.27-3.48,31.1,31.1,0,0,1-.86-3.55A25.53,25.53,0,0,1,60.93,21a.41.41,0,0,1,0-.11h1.12c.94,2.17,1.69,4.38,2.48,6.54.4,1.1.81,2.19,1.24,3.25A16,16,0,0,1,67,34.31Z" fill="none"/><path d="M69.71,25.13a37.9,37.9,0,0,1,.44,7.35.06.06,0,0,1-.06.06s-.06,0-.06,0L69.16,29c-.3-1.17-.6-2.34-1-3.46a16.51,16.51,0,0,0-2-4.46c.8.06,1.64.15,2.5.27l.06.15A18.3,18.3,0,0,1,69.71,25.13Z" fill="none"/><path d="M72.23,22c.62.16,1.24.35,1.84.56,0,.51,0,1-.06,1.53a38.17,38.17,0,0,1-1.32,7.24.07.07,0,0,1-.13,0V27.66c0-1.2,0-2.41-.12-3.58C72.4,23.37,72.33,22.67,72.23,22Z" fill="none"/><path d="M86,63.68a13.81,13.81,0,0,1-1.87,2.05,10.39,10.39,0,0,0-.67-1.28,13.18,13.18,0,0,0-1.63-2.2,14.39,14.39,0,0,0-2.06-1.91,12.84,12.84,0,0,0-2.46-1.5,13.11,13.11,0,0,1,2.84.81A14.91,14.91,0,0,1,82.83,61,14.49,14.49,0,0,1,85.28,63c.18.18.39.35.56.55Z" fill="none"/><path d="M88.45,56.53c-.1.81-.23,1.63-.39,2.48-.06.26-.11.52-.18.77A13.9,13.9,0,0,0,86.22,58,14.18,14.18,0,0,0,84,56.38a14.92,14.92,0,0,0-2.55-1.21,13,13,0,0,0-2.79-.71,13.91,13.91,0,0,1,3-.06,15.27,15.27,0,0,1,3,.53A14.81,14.81,0,0,1,87.52,56c.23.12.48.22.7.36Z" fill="none"/><path d="M88.67,52a13.7,13.7,0,0,0-4.56-1.47,14.59,14.59,0,0,0-2.81-.14,13.28,13.28,0,0,0-2.85.43,13.46,13.46,0,0,1,2.71-1.2,15.82,15.82,0,0,1,3-.67,15.25,15.25,0,0,1,3.1-.1c.27,0,.53,0,.79.07l.47.06C88.58,49.9,88.65,50.91,88.67,52Z" fill="none"/><circle cx="74.12" cy="41.24" r="5.36" fill="#160014"/><path d="M58.79,51c2.67-.2,5-1,8.71-2.09s4.07.81,3.37,2.09-2.21,2.32-.58,3.71,5.34,4.3,3.83,8.54-4.41,3.77-7.49,5.4-3.19,2.09-7.84,2.21-10.22-3.14-12.31-6.27-.69-7.2,1.28-9.41S46,52.51,46.13,51.35s1.75-2.91,5.46-1.51A14.89,14.89,0,0,0,58.79,51Z" fill="#2b2b2a"/><ellipse cx="66.48" cy="52.94" rx="2.66" ry="1.32" transform="translate(-14.97 77.19) rotate(-55.11)" fill="#160014"/><ellipse cx="51.42" cy="52.94" rx="1.32" ry="2.66" transform="translate(-21.63 42.39) rotate(-37.61)" fill="#160014"/><path d="M58.79,61.71s.47,6.27,7.38,3.83" fill="none" stroke="#160014" stroke-linecap="round" stroke-linejoin="round" stroke-width="1.13"/><path d="M58.79,61.71s-.46,6.27-7.37,3.83" fill="none" stroke="#160014" stroke-linecap="round" stroke-linejoin="round" stroke-width="1.13"/><circle cx="76.38" cy="38.75" r="0.92" fill="#2b2b2a"/><circle cx="74.48" cy="38.75" r="2.2" fill="#fff"/><circle cx="44.38" cy="41.24" r="5.36" fill="#160014"/><circle cx="42.12" cy="38.75" r="0.92" fill="#2b2b2a"/><circle cx="44.02" cy="38.75" r="2.2" fill="#fff"/><path d="M77.16,116.33H83.5s1.09-7.91-6.07-7.91Z" fill="#2b2b2a"/><path d="M41.36,116.33H35s-1.09-7.91,6.07-7.91Z" fill="#2b2b2a"/><polygon points="55.93 111.56 55.93 116.1 48.23 116.1 46.45 111.56 55.93 111.56" fill="#2b2b2a"/><line x1="62.93" y1="111.56" x2="72.73" y2="111.56" fill="none" stroke="#160014" stroke-linecap="round" stroke-linejoin="round" stroke-width="1.13"/><path d="M43.55,102.54l4.36,13.56h8V102.54" fill="none" stroke="#160014" stroke-linecap="round" stroke-linejoin="round" stroke-width="1.13"/><line x1="55.93" y1="111.56" x2="46.13" y2="111.56" fill="none" stroke="#160014" stroke-linecap="round" stroke-linejoin="round" stroke-width="1.13"/><path d="M66.84,38.28a13.6,13.6,0,0,1-1.39,3.55,27.53,27.53,0,0,1-4.38,5.84.07.07,0,0,1-.09,0,0,0,0,0,1,0-.07,53.47,53.47,0,0,0,3-6.42,13.43,13.43,0,0,0,.84-3.25,8.38,8.38,0,0,0-.17-3.16,16.46,16.46,0,0,0-1.19-3.11,29.13,29.13,0,0,1-1.27-3.48,31.1,31.1,0,0,1-.86-3.55A25.53,25.53,0,0,1,60.93,21a.41.41,0,0,1,0-.11.58.58,0,0,1,.54-.47.57.57,0,0,1,.54.34h0s0,.08,0,.12c.94,2.17,1.69,4.38,2.48,6.54.4,1.1.81,2.19,1.24,3.25A16,16,0,0,1,67,34.31,10,10,0,0,1,66.84,38.28Z" fill="#2b2b2a"/><path d="M70.15,32.48a.06.06,0,0,1-.06.06s-.06,0-.06,0L69.16,29c-.3-1.17-.6-2.34-1-3.46a16.51,16.51,0,0,0-2-4.46c.8.06,1.64.15,2.5.27l.06.15a18.3,18.3,0,0,1,1,3.67A37.9,37.9,0,0,1,70.15,32.48Z" fill="#2b2b2a"/><path d="M74.07,22.55c0,.51,0,1-.06,1.53a38.17,38.17,0,0,1-1.32,7.24.07.07,0,0,1-.13,0V27.66c0-1.2,0-2.41-.12-3.58,0-.71-.11-1.41-.21-2.09C72.85,22.15,73.47,22.34,74.07,22.55Z" fill="#2b2b2a"/><path d="M53.4,21.07a17.21,17.21,0,0,0-2,4.43c-.36,1.12-.67,2.29-1,3.46l-.87,3.54a.07.07,0,0,1-.08,0,.06.06,0,0,1-.05-.06,38.71,38.71,0,0,1,.44-7.35,19,19,0,0,1,1-3.67l0-.09C51.75,21.24,52.59,21.15,53.4,21.07Z" fill="#2b2b2a"/><path d="M47.35,22.1c-.09.65-.15,1.31-.2,2-.09,1.17-.11,2.38-.12,3.58V31.3a.07.07,0,0,1-.06.07.06.06,0,0,1-.06-.05,38.17,38.17,0,0,1-1.32-7.24c0-.46-.06-.92-.06-1.39C46.12,22.47,46.73,22.27,47.35,22.1Z" fill="#2b2b2a"/><path d="M59,47.6a.05.05,0,0,1,0,.08.08.08,0,0,1-.08,0,27.53,27.53,0,0,1-4.38-5.84,13.6,13.6,0,0,1-1.39-3.55,9.82,9.82,0,0,1-.11-4,16.52,16.52,0,0,1,1.17-3.64c.44-1.06.85-2.15,1.25-3.25.79-2.16,1.54-4.37,2.47-6.54l0-.12h0a.57.57,0,0,1,.74-.3.58.58,0,0,1,.33.43.45.45,0,0,1,0,.11,25.53,25.53,0,0,1-.44,3.63,31.1,31.1,0,0,1-.86,3.55,29.13,29.13,0,0,1-1.27,3.48,16.46,16.46,0,0,0-1.19,3.11,8.59,8.59,0,0,0-.18,3.16A13.93,13.93,0,0,0,56,41.18,53.47,53.47,0,0,0,59,47.6Z" fill="#2b2b2a"/><path d="M88.67,52a13.7,13.7,0,0,0-4.56-1.47,14.59,14.59,0,0,0-2.81-.14,13.28,13.28,0,0,0-2.85.43,13.46,13.46,0,0,1,2.71-1.2,15.82,15.82,0,0,1,3-.67,15.25,15.25,0,0,1,3.1-.1c.27,0,.53,0,.79.07l.47.06C88.58,49.9,88.65,50.91,88.67,52Z" fill="#2b2b2a"/><path d="M88.45,56.53c-.1.81-.23,1.63-.39,2.48-.06.26-.11.52-.18.77A13.9,13.9,0,0,0,86.22,58,14.18,14.18,0,0,0,84,56.38a14.92,14.92,0,0,0-2.55-1.21,13,13,0,0,0-2.79-.71,13.91,13.91,0,0,1,3-.06,15.27,15.27,0,0,1,3,.53A14.81,14.81,0,0,1,87.52,56c.23.12.48.22.7.36Z" fill="#2b2b2a"/><path d="M86,63.68a13.81,13.81,0,0,1-1.87,2.05,10.39,10.39,0,0,0-.67-1.28,13.18,13.18,0,0,0-1.63-2.2,14.39,14.39,0,0,0-2.06-1.91,12.84,12.84,0,0,0-2.46-1.5,13.11,13.11,0,0,1,2.84.81A14.91,14.91,0,0,1,82.83,61,14.49,14.49,0,0,1,85.28,63c.18.18.39.35.56.55Z" fill="#2b2b2a"/><path d="M41.57,50.77a13.28,13.28,0,0,0-2.85-.43,14.59,14.59,0,0,0-2.81.14A13.74,13.74,0,0,0,31.31,52q0-1.57.21-3l.5-.07c.26,0,.53,0,.79-.07a15.25,15.25,0,0,1,3.1.1,16.11,16.11,0,0,1,3,.67A13.62,13.62,0,0,1,41.57,50.77Z" fill="#2b2b2a"/><path d="M41.34,54.46a13,13,0,0,0-2.79.71A14.82,14.82,0,0,0,36,56.38a13.55,13.55,0,0,0-3.89,3.44,7.91,7.91,0,0,1-.19-.81c-.17-.84-.29-1.66-.39-2.46l.26-.15c.22-.14.47-.24.7-.36a15.06,15.06,0,0,1,2.9-1.11,15.41,15.41,0,0,1,3-.53A13.91,13.91,0,0,1,41.34,54.46Z" fill="#2b2b2a"/><path d="M42.72,58.84a12.47,12.47,0,0,0-2.45,1.5,14,14,0,0,0-2.07,1.91,13.75,13.75,0,0,0-1.63,2.2,11.5,11.5,0,0,0-.68,1.3,13.41,13.41,0,0,1-1.88-2l.17-.19c.17-.2.38-.37.56-.55A15.33,15.33,0,0,1,37.19,61a14.91,14.91,0,0,1,2.69-1.39A13.27,13.27,0,0,1,42.72,58.84Z" fill="#2b2b2a"/><path d="M85.54,87.72l.34-.12a26.07,26.07,0,0,1-.53,4,9,9,0,0,1-1.06.21,9.63,9.63,0,0,1-2.63.05,8.58,8.58,0,0,1-2.61-.71l-.15-.06L78.77,91l-.23-.11-.47-.22c-.31-.16-.63-.28-.94-.42a34.21,34.21,0,0,0-7.95-2.35,54.9,54.9,0,0,0-8.6-.64,27.15,27.15,0,0,1,8.76-1.64,26.6,26.6,0,0,1,9,1.41c.36.12.73.24,1.08.38l.53.2.27.1.13,0,.1,0,.38.14.4.1a7.54,7.54,0,0,0,.81.12A9.24,9.24,0,0,0,85.54,87.72Z" fill="#2b2b2a"/><path d="M85.77,83.28c.06.57.11,1.15.13,1.72C84,84.5,82,84.12,80,83.78A27.11,27.11,0,0,1,85.77,83.28Z" fill="#2b2b2a"/><path d="M84.33,95.25l-.46,1.45c-1.54-.7-3.13-1.35-4.76-2A27.91,27.91,0,0,1,84.33,95.25Z" fill="#2b2b2a"/><path d="M83.05,99.24a27.55,27.55,0,0,0-5-.48c1.57.59,3.1,1.21,4.57,1.89Z" fill="#2b2b2a"/><path d="M82,102.26l-.39,1.22c-1.25-.55-2.53-1.06-3.84-1.56A28.72,28.72,0,0,1,82,102.26Z" fill="#2b2b2a"/><path d="M80.75,106.26l-.38,1.17c-1.19-.52-2.41-1-3.65-1.48A27.35,27.35,0,0,1,80.75,106.26Z" fill="#2b2b2a"/><path d="M84.34,77.1a11.17,11.17,0,0,1-1.4,1.24,9.83,9.83,0,0,1-2.29,1.29,8.47,8.47,0,0,1-2.63.61l-.17,0h-.39l-.52,0c-.34,0-.69,0-1,.08a34.18,34.18,0,0,0-8.11,1.7,52.13,52.13,0,0,0-7.27,3.21,2.8,2.8,0,0,1-1.27.31h0A2.8,2.8,0,0,1,58,85.3a52.13,52.13,0,0,0-7.27-3.21,34.07,34.07,0,0,0-8.11-1.7c-.34,0-.69-.07-1-.08l-.52,0h-.39l-.17,0a8.47,8.47,0,0,1-2.63-.61,9.83,9.83,0,0,1-2.29-1.29,11.17,11.17,0,0,1-1.4-1.24,25.15,25.15,0,0,1,1.63-3.63c.2.23.41.45.62.66a9.21,9.21,0,0,0,2.85,2.08c.25.11.51.19.77.28l.4.09.4.07.1,0,.14,0,.28,0,.57.08c.38,0,.76.11,1.13.18a26.52,26.52,0,0,1,8.59,3h0c.47.24,8,3.91,15.18,0a26.52,26.52,0,0,1,8.59-3c.37-.07.75-.14,1.13-.18l.57-.08.28,0,.14,0,.1,0,.4-.07.4-.09c.26-.09.52-.17.77-.28a9.21,9.21,0,0,0,2.85-2.08c.21-.21.42-.43.62-.66A25.15,25.15,0,0,1,84.34,77.1Z" fill="#2b2b2a"/><path d="M33,87.72l-.34-.12a26.07,26.07,0,0,0,.53,4,9,9,0,0,0,1.06.21,9.63,9.63,0,0,0,2.63.05,8.58,8.58,0,0,0,2.61-.71l.15-.06.13-.06.23-.11.47-.22c.31-.16.63-.28.94-.42a34.21,34.21,0,0,1,8-2.35,54.9,54.9,0,0,1,8.6-.64,27.15,27.15,0,0,0-8.76-1.64,26.6,26.6,0,0,0-9,1.41c-.36.12-.73.24-1.08.38l-.53.2-.27.1-.13,0-.1,0-.38.14-.4.1a7.54,7.54,0,0,1-.81.12A9.24,9.24,0,0,1,33,87.72Z" fill="#2b2b2a"/><path d="M32.75,83.28c-.06.57-.11,1.15-.13,1.72,1.91-.5,3.88-.88,5.9-1.22A27.11,27.11,0,0,0,32.75,83.28Z" fill="#2b2b2a"/><path d="M34.19,95.25l.46,1.45c1.54-.7,3.13-1.35,4.76-2A27.91,27.91,0,0,0,34.19,95.25Z" fill="#2b2b2a"/><path d="M35.93,100.65c1.47-.68,3-1.3,4.57-1.89a27.55,27.55,0,0,0-5,.48Z" fill="#2b2b2a"/><path d="M36.74,102.89l.39,1.21c1.25-.55,2.53-1.06,3.83-1.56A27.3,27.3,0,0,0,36.74,102.89Z" fill="#2b2b2a"/><path d="M38,106.88l.38,1.17c1.19-.52,2.41-1,3.65-1.48A28.9,28.9,0,0,0,38,106.88Z" fill="#2b2b2a"/></svg>