<svg width="1440" height="1023" viewBox="0 0 1440 1023" fill="none" xmlns="http://www.w3.org/2000/svg">
<g filter="url(#filter0_f_228_8306)">
<path d="M1821.93 1129.72C1860.87 883.057 1657.23 229.076 1387.62 -86.6764C1099.93 -423.602 455.182 -727.896 244.62 -717.52" stroke="#B587F5" stroke-width="249.68"/>
</g>
<g filter="url(#filter1_f_228_8306)">
<path d="M1905.83 1049.03C1944.78 802.371 1741.14 148.39 1471.53 -167.362C1183.84 -504.287 539.09 -808.582 328.528 -798.205" stroke="#B587F5" stroke-width="344.08"/>
</g>
<g filter="url(#filter2_f_228_8306)">
<path d="M1745.63 1204.33C1784.58 957.669 1580.94 303.688 1311.33 -12.0642C1023.63 -348.99 378.887 -653.284 168.325 -642.908" stroke="#C64AFF" stroke-width="48.08"/>
</g>
<g filter="url(#filter3_f_228_8306)">
<path d="M1695.28 1250.63C1734.23 1003.97 1530.59 349.986 1260.98 34.2339C973.285 -302.692 328.537 -606.986 117.975 -596.61" stroke="#533BE9" stroke-width="76.08"/>
</g>
<g style="mix-blend-mode:color-dodge">
<rect width="1.14187" height="11.2341" transform="matrix(0.782708 0.551853 -0.50659 0.809166 1080.15 49.2754)" fill="black"/>
<ellipse cx="0.570937" cy="5.61704" rx="0.570937" ry="5.61704" transform="matrix(0.782708 0.551853 -0.50659 0.809166 1080.15 49.2754)" fill="url(#paint0_radial_228_8306)"/>
</g>
<g style="mix-blend-mode:color-dodge">
<rect width="1.17022" height="10.962" transform="matrix(0.50659 -0.809166 0.782708 0.551853 1073.17 51.584)" fill="black"/>
<ellipse cx="0.585109" cy="5.481" rx="0.585109" ry="5.481" transform="matrix(0.50659 -0.809166 0.782708 0.551853 1073.17 51.584)" fill="url(#paint1_radial_228_8306)"/>
</g>
<g style="mix-blend-mode:color-dodge">
<rect width="1.15309" height="11.3153" transform="matrix(0.779357 0.562507 -0.499043 0.818058 1126.87 14.1064)" fill="black"/>
<ellipse cx="0.576543" cy="5.65766" rx="0.576543" ry="5.65766" transform="matrix(0.779357 0.562507 -0.499043 0.818058 1126.87 14.1064)" fill="url(#paint2_radial_228_8306)"/>
</g>
<g style="mix-blend-mode:color-dodge">
<rect width="1.17868" height="11.0696" transform="matrix(0.499043 -0.818058 0.779357 0.562507 1119.89 16.4277)" fill="black"/>
<ellipse cx="0.58934" cy="5.53482" rx="0.58934" ry="5.53482" transform="matrix(0.499043 -0.818058 0.779357 0.562507 1119.89 16.4277)" fill="url(#paint3_radial_228_8306)"/>
</g>
<g style="mix-blend-mode:color-dodge">
<rect width="1.30711" height="12.47" transform="matrix(0.735681 0.677328 -0.407376 0.913261 1158.49 87.6377)" fill="black"/>
<ellipse cx="0.653553" cy="6.235" rx="0.653553" ry="6.235" transform="matrix(0.735681 0.677328 -0.407376 0.913261 1158.49 87.6377)" fill="url(#paint4_radial_228_8306)"/>
</g>
<g style="mix-blend-mode:color-dodge">
<rect width="1.29896" height="12.5482" transform="matrix(0.407375 -0.913261 0.735681 0.677328 1151.55 90.1182)" fill="black"/>
<ellipse cx="0.649479" cy="6.27411" rx="0.649479" ry="6.27411" transform="matrix(0.407375 -0.913261 0.735681 0.677328 1151.55 90.1182)" fill="url(#paint5_radial_228_8306)"/>
</g>
<g style="mix-blend-mode:color-dodge">
<rect width="0.811526" height="7.98924" transform="matrix(0.783547 0.54913 -0.508495 0.806893 1225.11 28.8721)" fill="black"/>
<ellipse cx="0.405763" cy="3.99462" rx="0.405763" ry="3.99462" transform="matrix(0.783547 0.54913 -0.508495 0.806893 1225.11 28.8721)" fill="url(#paint6_radial_228_8306)"/>
</g>
<g style="mix-blend-mode:color-dodge">
<rect width="0.832212" height="7.79065" transform="matrix(0.508495 -0.806893 0.783547 0.54913 1220.14 30.5146)" fill="black"/>
<ellipse cx="0.416106" cy="3.89532" rx="0.416106" ry="3.89532" transform="matrix(0.508495 -0.806893 0.783547 0.54913 1220.14 30.5146)" fill="url(#paint7_radial_228_8306)"/>
</g>
<g style="mix-blend-mode:color-dodge">
<rect width="1.0413" height="10.3387" transform="matrix(0.793894 0.513433 -0.532619 0.777095 1265.14 74.5049)" fill="black"/>
<ellipse cx="0.520652" cy="5.16936" rx="0.520652" ry="5.16936" transform="matrix(0.793894 0.513433 -0.532619 0.777095 1265.14 74.5049)" fill="url(#paint8_radial_228_8306)"/>
</g>
<g style="mix-blend-mode:color-dodge">
<rect width="1.07695" height="9.99652" transform="matrix(0.532619 -0.777095 0.793894 0.513433 1258.55 76.6406)" fill="black"/>
<ellipse cx="0.538474" cy="4.99826" rx="0.538474" ry="4.99826" transform="matrix(0.532619 -0.777095 0.793894 0.513433 1258.55 76.6406)" fill="url(#paint9_radial_228_8306)"/>
</g>
<g style="mix-blend-mode:color-dodge">
<rect width="1.52027" height="15.1095" transform="matrix(0.795066 0.509115 -0.535434 0.773491 1311.8 142.611)" fill="black"/>
<ellipse cx="0.760134" cy="7.55475" rx="0.760134" ry="7.55475" transform="matrix(0.795066 0.509115 -0.535434 0.773491 1311.8 142.611)" fill="url(#paint10_radial_228_8306)"/>
</g>
<g style="mix-blend-mode:color-dodge">
<rect width="1.57391" height="14.5946" transform="matrix(0.535434 -0.773491 0.795066 0.509115 1302.13 145.735)" fill="black"/>
<ellipse cx="0.786953" cy="7.29729" rx="0.786953" ry="7.29729" transform="matrix(0.535434 -0.773491 0.795066 0.509115 1302.13 145.735)" fill="url(#paint11_radial_228_8306)"/>
</g>
<g style="mix-blend-mode:color-dodge">
<rect width="0.937529" height="10.6441" transform="matrix(0.584317 0.781651 -0.576193 0.851282 1369.2 210.989)" fill="black"/>
<ellipse cx="0.468764" cy="5.32206" rx="0.468764" ry="5.32206" transform="matrix(0.584317 0.781651 -0.576193 0.851282 1369.2 210.989)" fill="url(#paint12_radial_228_8306)"/>
</g>
<g style="mix-blend-mode:color-dodge">
<rect width="1.10883" height="9.0001" transform="matrix(0.0664516 -0.958478 0.958683 0.434731 1362.05 214.461)" fill="black"/>
<ellipse cx="0.554413" cy="4.50005" rx="0.554413" ry="4.50005" transform="matrix(0.0664516 -0.958478 0.958683 0.434731 1362.05 214.461)" fill="url(#paint13_radial_228_8306)"/>
</g>
<g style="mix-blend-mode:color-dodge">
<rect width="3.00051" height="4.17525" transform="matrix(0.980226 -0.197882 0.204344 0.978899 1378.52 291.2)" fill="black"/>
<ellipse cx="1.50026" cy="2.08763" rx="1.50026" ry="2.08763" transform="matrix(0.980226 -0.197882 0.204344 0.978899 1378.52 291.2)" fill="url(#paint14_radial_228_8306)"/>
</g>
<g style="mix-blend-mode:color-dodge">
<rect width="3.00051" height="4.17525" transform="matrix(0.980226 -0.197882 0.204344 0.978899 1357.98 294.07)" fill="black"/>
<ellipse cx="1.50026" cy="2.08763" rx="1.50026" ry="2.08763" transform="matrix(0.980226 -0.197882 0.204344 0.978899 1357.98 294.07)" fill="url(#paint15_radial_228_8306)"/>
</g>
<g style="mix-blend-mode:color-dodge">
<rect width="3.00051" height="4.17525" transform="matrix(0.980226 -0.197882 0.204344 0.978899 1384.61 342.363)" fill="black"/>
<ellipse cx="1.50026" cy="2.08763" rx="1.50026" ry="2.08763" transform="matrix(0.980226 -0.197882 0.204344 0.978899 1384.61 342.363)" fill="url(#paint16_radial_228_8306)"/>
</g>
<g style="mix-blend-mode:color-dodge">
<rect width="3.00051" height="4.17525" transform="matrix(0.980226 -0.197882 0.204344 0.978899 1291.34 193.655)" fill="black"/>
<ellipse cx="1.50026" cy="2.08763" rx="1.50026" ry="2.08763" transform="matrix(0.980226 -0.197882 0.204344 0.978899 1291.34 193.655)" fill="url(#paint17_radial_228_8306)"/>
</g>
<g style="mix-blend-mode:color-dodge">
<rect width="3.00051" height="4.17525" transform="matrix(0.980226 -0.197882 0.204344 0.978899 1322.59 197.995)" fill="black"/>
<ellipse cx="1.50026" cy="2.08763" rx="1.50026" ry="2.08763" transform="matrix(0.980226 -0.197882 0.204344 0.978899 1322.59 197.995)" fill="url(#paint18_radial_228_8306)"/>
</g>
<g style="mix-blend-mode:color-dodge">
<rect width="3.00051" height="4.17525" transform="matrix(0.980226 -0.197882 0.204344 0.978899 1306.12 201.319)" fill="black"/>
<ellipse cx="1.50026" cy="2.08763" rx="1.50026" ry="2.08763" transform="matrix(0.980226 -0.197882 0.204344 0.978899 1306.12 201.319)" fill="url(#paint19_radial_228_8306)"/>
</g>
<g style="mix-blend-mode:color-dodge">
<rect width="3.00051" height="4.17525" transform="matrix(0.980226 -0.197882 0.204344 0.978899 1252.35 123.863)" fill="black"/>
<ellipse cx="1.50026" cy="2.08763" rx="1.50026" ry="2.08763" transform="matrix(0.980226 -0.197882 0.204344 0.978899 1252.35 123.863)" fill="url(#paint20_radial_228_8306)"/>
</g>
<g style="mix-blend-mode:color-dodge">
<rect width="3.00051" height="4.17525" transform="matrix(0.980226 -0.197882 0.204344 0.978899 1173.39 46.0967)" fill="black"/>
<ellipse cx="1.50026" cy="2.08763" rx="1.50026" ry="2.08763" transform="matrix(0.980226 -0.197882 0.204344 0.978899 1173.39 46.0967)" fill="url(#paint21_radial_228_8306)"/>
</g>
<g style="mix-blend-mode:color-dodge">
<rect width="3.00051" height="4.17525" transform="matrix(0.980226 -0.197882 0.204344 0.978899 1040.19 2.70605)" fill="black"/>
<ellipse cx="1.50026" cy="2.08763" rx="1.50026" ry="2.08763" transform="matrix(0.980226 -0.197882 0.204344 0.978899 1040.19 2.70605)" fill="url(#paint22_radial_228_8306)"/>
</g>
<g style="mix-blend-mode:color-dodge">
<rect width="3.00051" height="4.17525" transform="matrix(0.980226 -0.197882 0.204344 0.978899 989.767 10.7568)" fill="black"/>
<ellipse cx="1.50026" cy="2.08763" rx="1.50026" ry="2.08763" transform="matrix(0.980226 -0.197882 0.204344 0.978899 989.767 10.7568)" fill="url(#paint23_radial_228_8306)"/>
</g>
<defs>
<filter id="filter0_f_228_8306" x="89.5571" y="-974.323" width="1997.37" height="2270.21" filterUnits="userSpaceOnUse" color-interpolation-filters="sRGB">
<feFlood flood-opacity="0" result="BackgroundImageFix"/>
<feBlend mode="normal" in="SourceGraphic" in2="BackgroundImageFix" result="shape"/>
<feGaussianBlur stdDeviation="67.76" result="effect1_foregroundBlur_228_8306"/>
</filter>
<filter id="filter1_f_228_8306" x="192.476" y="-1074.37" width="1999.11" height="2274.75" filterUnits="userSpaceOnUse" color-interpolation-filters="sRGB">
<feFlood flood-opacity="0" result="BackgroundImageFix"/>
<feBlend mode="normal" in="SourceGraphic" in2="BackgroundImageFix" result="shape"/>
<feGaussianBlur stdDeviation="54.56" result="effect1_foregroundBlur_228_8306"/>
</filter>
<filter id="filter2_f_228_8306" x="65.8415" y="-765.191" width="1807.31" height="2074.14" filterUnits="userSpaceOnUse" color-interpolation-filters="sRGB">
<feFlood flood-opacity="0" result="BackgroundImageFix"/>
<feBlend mode="normal" in="SourceGraphic" in2="BackgroundImageFix" result="shape"/>
<feGaussianBlur stdDeviation="49.36" result="effect1_foregroundBlur_228_8306"/>
</filter>
<filter id="filter3_f_228_8306" x="-7.97998" y="-753.745" width="1866.04" height="2133.71" filterUnits="userSpaceOnUse" color-interpolation-filters="sRGB">
<feFlood flood-opacity="0" result="BackgroundImageFix"/>
<feBlend mode="normal" in="SourceGraphic" in2="BackgroundImageFix" result="shape"/>
<feGaussianBlur stdDeviation="60" result="effect1_foregroundBlur_228_8306"/>
</filter>
<radialGradient id="paint0_radial_228_8306" cx="0" cy="0" r="1" gradientUnits="userSpaceOnUse" gradientTransform="translate(0.570937 5.61704) rotate(90) scale(5.61704 0.570937)">
<stop offset="0.0364583" stop-color="#FFF1E4"/>
<stop offset="1" stop-color="#3A71FF" stop-opacity="0"/>
</radialGradient>
<radialGradient id="paint1_radial_228_8306" cx="0" cy="0" r="1" gradientUnits="userSpaceOnUse" gradientTransform="translate(0.585109 5.481) rotate(90) scale(5.481 0.585109)">
<stop offset="0.0364583" stop-color="#FFF1E4"/>
<stop offset="1" stop-color="#3A71FF" stop-opacity="0"/>
</radialGradient>
<radialGradient id="paint2_radial_228_8306" cx="0" cy="0" r="1" gradientUnits="userSpaceOnUse" gradientTransform="translate(0.576543 5.65766) rotate(90) scale(5.65766 0.576543)">
<stop offset="0.0364583" stop-color="#FFF1E4"/>
<stop offset="1" stop-color="#3A71FF" stop-opacity="0"/>
</radialGradient>
<radialGradient id="paint3_radial_228_8306" cx="0" cy="0" r="1" gradientUnits="userSpaceOnUse" gradientTransform="translate(0.58934 5.53482) rotate(90) scale(5.53482 0.58934)">
<stop offset="0.0364583" stop-color="#FFF1E4"/>
<stop offset="1" stop-color="#3A71FF" stop-opacity="0"/>
</radialGradient>
<radialGradient id="paint4_radial_228_8306" cx="0" cy="0" r="1" gradientUnits="userSpaceOnUse" gradientTransform="translate(0.653553 6.235) rotate(90) scale(6.235 0.653553)">
<stop offset="0.0364583" stop-color="#FFF1E4"/>
<stop offset="1" stop-color="#3A71FF" stop-opacity="0"/>
</radialGradient>
<radialGradient id="paint5_radial_228_8306" cx="0" cy="0" r="1" gradientUnits="userSpaceOnUse" gradientTransform="translate(0.649479 6.27411) rotate(90) scale(6.27411 0.649479)">
<stop offset="0.0364583" stop-color="#FFF1E4"/>
<stop offset="1" stop-color="#3A71FF" stop-opacity="0"/>
</radialGradient>
<radialGradient id="paint6_radial_228_8306" cx="0" cy="0" r="1" gradientUnits="userSpaceOnUse" gradientTransform="translate(0.405763 3.99462) rotate(90) scale(3.99462 0.405763)">
<stop offset="0.0364583" stop-color="#FFF1E4"/>
<stop offset="1" stop-color="#3A71FF" stop-opacity="0"/>
</radialGradient>
<radialGradient id="paint7_radial_228_8306" cx="0" cy="0" r="1" gradientUnits="userSpaceOnUse" gradientTransform="translate(0.416106 3.89532) rotate(90) scale(3.89532 0.416106)">
<stop offset="0.0364583" stop-color="#FFF1E4"/>
<stop offset="1" stop-color="#3A71FF" stop-opacity="0"/>
</radialGradient>
<radialGradient id="paint8_radial_228_8306" cx="0" cy="0" r="1" gradientUnits="userSpaceOnUse" gradientTransform="translate(0.520652 5.16936) rotate(90) scale(5.16936 0.520652)">
<stop offset="0.0364583" stop-color="#FFF1E4"/>
<stop offset="1" stop-color="#3A71FF" stop-opacity="0"/>
</radialGradient>
<radialGradient id="paint9_radial_228_8306" cx="0" cy="0" r="1" gradientUnits="userSpaceOnUse" gradientTransform="translate(0.538474 4.99826) rotate(90) scale(4.99826 0.538474)">
<stop offset="0.0364583" stop-color="#FFF1E4"/>
<stop offset="1" stop-color="#3A71FF" stop-opacity="0"/>
</radialGradient>
<radialGradient id="paint10_radial_228_8306" cx="0" cy="0" r="1" gradientUnits="userSpaceOnUse" gradientTransform="translate(0.760134 7.55475) rotate(90) scale(7.55475 0.760134)">
<stop offset="0.0364583" stop-color="#FFF1E4"/>
<stop offset="1" stop-color="#3A71FF" stop-opacity="0"/>
</radialGradient>
<radialGradient id="paint11_radial_228_8306" cx="0" cy="0" r="1" gradientUnits="userSpaceOnUse" gradientTransform="translate(0.786953 7.29729) rotate(90) scale(7.29729 0.786953)">
<stop offset="0.0364583" stop-color="#FFF1E4"/>
<stop offset="1" stop-color="#3A71FF" stop-opacity="0"/>
</radialGradient>
<radialGradient id="paint12_radial_228_8306" cx="0" cy="0" r="1" gradientUnits="userSpaceOnUse" gradientTransform="translate(0.468764 5.32206) rotate(90) scale(5.32206 0.468764)">
<stop offset="0.0364583" stop-color="#FFF1E4"/>
<stop offset="1" stop-color="#3A71FF" stop-opacity="0"/>
</radialGradient>
<radialGradient id="paint13_radial_228_8306" cx="0" cy="0" r="1" gradientUnits="userSpaceOnUse" gradientTransform="translate(0.554413 4.50005) rotate(90) scale(4.50005 0.554413)">
<stop offset="0.0364583" stop-color="#FFF1E4"/>
<stop offset="1" stop-color="#3A71FF" stop-opacity="0"/>
</radialGradient>
<radialGradient id="paint14_radial_228_8306" cx="0" cy="0" r="1" gradientUnits="userSpaceOnUse" gradientTransform="translate(1.50026 2.08763) rotate(90) scale(2.08763 1.50026)">
<stop offset="0.015625" stop-color="white"/>
<stop offset="1" stop-color="#533BE9" stop-opacity="0"/>
</radialGradient>
<radialGradient id="paint15_radial_228_8306" cx="0" cy="0" r="1" gradientUnits="userSpaceOnUse" gradientTransform="translate(1.50026 2.08763) rotate(90) scale(2.08763 1.50026)">
<stop offset="0.015625" stop-color="white"/>
<stop offset="1" stop-color="#533BE9" stop-opacity="0"/>
</radialGradient>
<radialGradient id="paint16_radial_228_8306" cx="0" cy="0" r="1" gradientUnits="userSpaceOnUse" gradientTransform="translate(1.50026 2.08763) rotate(90) scale(2.08763 1.50026)">
<stop offset="0.015625" stop-color="white"/>
<stop offset="1" stop-color="#533BE9" stop-opacity="0"/>
</radialGradient>
<radialGradient id="paint17_radial_228_8306" cx="0" cy="0" r="1" gradientUnits="userSpaceOnUse" gradientTransform="translate(1.50026 2.08763) rotate(90) scale(2.08763 1.50026)">
<stop offset="0.015625" stop-color="white"/>
<stop offset="1" stop-color="#533BE9" stop-opacity="0"/>
</radialGradient>
<radialGradient id="paint18_radial_228_8306" cx="0" cy="0" r="1" gradientUnits="userSpaceOnUse" gradientTransform="translate(1.50026 2.08763) rotate(90) scale(2.08763 1.50026)">
<stop offset="0.015625" stop-color="white"/>
<stop offset="1" stop-color="#533BE9" stop-opacity="0"/>
</radialGradient>
<radialGradient id="paint19_radial_228_8306" cx="0" cy="0" r="1" gradientUnits="userSpaceOnUse" gradientTransform="translate(1.50026 2.08763) rotate(90) scale(2.08763 1.50026)">
<stop offset="0.015625" stop-color="white"/>
<stop offset="1" stop-color="#533BE9" stop-opacity="0"/>
</radialGradient>
<radialGradient id="paint20_radial_228_8306" cx="0" cy="0" r="1" gradientUnits="userSpaceOnUse" gradientTransform="translate(1.50026 2.08763) rotate(90) scale(2.08763 1.50026)">
<stop offset="0.015625" stop-color="white"/>
<stop offset="1" stop-color="#533BE9" stop-opacity="0"/>
</radialGradient>
<radialGradient id="paint21_radial_228_8306" cx="0" cy="0" r="1" gradientUnits="userSpaceOnUse" gradientTransform="translate(1.50026 2.08763) rotate(90) scale(2.08763 1.50026)">
<stop offset="0.015625" stop-color="white"/>
<stop offset="1" stop-color="#533BE9" stop-opacity="0"/>
</radialGradient>
<radialGradient id="paint22_radial_228_8306" cx="0" cy="0" r="1" gradientUnits="userSpaceOnUse" gradientTransform="translate(1.50026 2.08763) rotate(90) scale(2.08763 1.50026)">
<stop offset="0.015625" stop-color="white"/>
<stop offset="1" stop-color="#533BE9" stop-opacity="0"/>
</radialGradient>
<radialGradient id="paint23_radial_228_8306" cx="0" cy="0" r="1" gradientUnits="userSpaceOnUse" gradientTransform="translate(1.50026 2.08763) rotate(90) scale(2.08763 1.50026)">
<stop offset="0.015625" stop-color="white"/>
<stop offset="1" stop-color="#533BE9" stop-opacity="0"/>
</radialGradient>
</defs>
</svg>
