<svg width="1440" height="1229" viewBox="0 0 1440 1229" fill="none" xmlns="http://www.w3.org/2000/svg">
<g filter="url(#filter0_f_273_4717)">
<path d="M1176.16 2069.66C928.058 2041.27 352.293 1670.25 120.086 1326.06C-127.693 958.782 -248.598 256.161 -182.324 56.0319" stroke="#B587F5" stroke-width="249.68"/>
</g>
<g filter="url(#filter1_f_273_4717)">
<path d="M1075.98 2128.95C827.882 2100.56 252.117 1729.54 19.9093 1385.35C-227.87 1018.07 -348.775 315.451 -282.5 115.322" stroke="#B587F5" stroke-width="344.08"/>
</g>
<g filter="url(#filter2_f_273_4717)">
<path d="M1268.45 2016.08C1020.35 1987.69 444.582 1616.67 212.374 1272.48C-35.4049 905.203 -156.31 202.582 -90.0352 2.45269" stroke="#C64AFF" stroke-width="48.08"/>
</g>
<g filter="url(#filter3_f_273_4717)">
<path d="M1326.52 1979.94C1078.42 1951.55 502.653 1580.53 270.445 1236.33C22.6662 869.058 -98.239 166.437 -31.9641 -33.6916" stroke="#533BE9" stroke-width="76.08"/>
</g>
<g style="mix-blend-mode:color-dodge">
<rect width="3.02644" height="3" transform="matrix(-0.999375 -0.0353407 0.101065 -0.99488 62.7505 625.485)" fill="black"/>
<ellipse cx="1.51322" cy="1.5" rx="1.51322" ry="1.5" transform="matrix(-0.999375 -0.0353407 0.101065 -0.99488 62.7505 625.485)" fill="url(#paint0_radial_273_4717)"/>
</g>
<g style="mix-blend-mode:color-dodge">
<rect width="3.02644" height="3" transform="matrix(-0.999375 -0.0353407 0.101065 -0.99488 83.4692 627.71)" fill="black"/>
<ellipse cx="1.51322" cy="1.5" rx="1.51322" ry="1.5" transform="matrix(-0.999375 -0.0353407 0.101065 -0.99488 83.4692 627.71)" fill="url(#paint1_radial_273_4717)"/>
</g>
<g style="mix-blend-mode:color-dodge">
<rect width="3.02644" height="3" transform="matrix(-0.999375 -0.0353407 0.101065 -0.99488 73.4824 564.659)" fill="black"/>
<ellipse cx="1.51322" cy="1.5" rx="1.51322" ry="1.5" transform="matrix(-0.999375 -0.0353407 0.101065 -0.99488 73.4824 564.659)" fill="url(#paint2_radial_273_4717)"/>
</g>
<g style="mix-blend-mode:color-dodge">
<rect width="3.02644" height="3" transform="matrix(-0.999375 -0.0353407 0.101065 -0.99488 115.07 761.854)" fill="black"/>
<ellipse cx="1.51322" cy="1.5" rx="1.51322" ry="1.5" transform="matrix(-0.999375 -0.0353407 0.101065 -0.99488 115.07 761.854)" fill="url(#paint3_radial_273_4717)"/>
</g>
<g style="mix-blend-mode:color-dodge">
<rect width="3.02644" height="3" transform="matrix(-0.999375 -0.0353407 0.101065 -0.99488 86.3862 748.399)" fill="black"/>
<ellipse cx="1.51322" cy="1.5" rx="1.51322" ry="1.5" transform="matrix(-0.999375 -0.0353407 0.101065 -0.99488 86.3862 748.399)" fill="url(#paint4_radial_273_4717)"/>
</g>
<g style="mix-blend-mode:color-dodge">
<rect width="3.02644" height="3" transform="matrix(-0.999375 -0.0353407 0.101065 -0.99488 103.324 748.998)" fill="black"/>
<ellipse cx="1.51322" cy="1.5" rx="1.51322" ry="1.5" transform="matrix(-0.999375 -0.0353407 0.101065 -0.99488 103.324 748.998)" fill="url(#paint5_radial_273_4717)"/>
</g>
<g style="mix-blend-mode:color-dodge">
<rect width="3.02644" height="3" transform="matrix(-0.999375 -0.0353407 0.101065 -0.99488 129.982 853.11)" fill="black"/>
<ellipse cx="1.51322" cy="1.5" rx="1.51322" ry="1.5" transform="matrix(-0.999375 -0.0353407 0.101065 -0.99488 129.982 853.11)" fill="url(#paint6_radial_273_4717)"/>
</g>
<g style="mix-blend-mode:color-dodge">
<rect width="3.0264" height="3" transform="matrix(-0.999368 -0.035543 0.101242 -0.994862 428.09 1126.72)" fill="black"/>
<ellipse cx="1.5132" cy="1.5" rx="1.5132" ry="1.5" transform="matrix(-0.999368 -0.035543 0.101242 -0.994862 428.09 1126.72)" fill="url(#paint7_radial_273_4717)"/>
</g>
<g style="mix-blend-mode:color-dodge">
<rect width="3.02644" height="3" transform="matrix(-0.999375 -0.0353407 0.101065 -0.99488 180.803 964.382)" fill="black"/>
<ellipse cx="1.51322" cy="1.5" rx="1.51322" ry="1.5" transform="matrix(-0.999375 -0.0353407 0.101065 -0.99488 180.803 964.382)" fill="url(#paint8_radial_273_4717)"/>
</g>
<g style="mix-blend-mode:color-dodge">
<rect width="3.02644" height="3" transform="matrix(-0.999375 -0.0353407 0.101065 -0.99488 391.22 1086.27)" fill="black"/>
<ellipse cx="1.51322" cy="1.5" rx="1.51322" ry="1.5" transform="matrix(-0.999375 -0.0353407 0.101065 -0.99488 391.22 1086.27)" fill="url(#paint9_radial_273_4717)"/>
</g>
<g style="mix-blend-mode:color-dodge">
<rect width="3.02644" height="3" transform="matrix(-0.999375 -0.0353407 0.101065 -0.99488 294.987 1050.52)" fill="black"/>
<ellipse cx="1.51322" cy="1.5" rx="1.51322" ry="1.5" transform="matrix(-0.999375 -0.0353407 0.101065 -0.99488 294.987 1050.52)" fill="url(#paint10_radial_273_4717)"/>
</g>
<g style="mix-blend-mode:color-dodge">
<rect width="3.02644" height="3" transform="matrix(-0.999375 -0.0353407 0.101065 -0.99488 333.303 1106.62)" fill="black"/>
<ellipse cx="1.51322" cy="1.5" rx="1.51322" ry="1.5" transform="matrix(-0.999375 -0.0353407 0.101065 -0.99488 333.303 1106.62)" fill="url(#paint11_radial_273_4717)"/>
</g>
<g style="mix-blend-mode:color-dodge">
<rect width="3.02644" height="3" transform="matrix(-0.999375 -0.0353407 0.101065 -0.99488 346.153 1054.82)" fill="black"/>
<ellipse cx="1.51322" cy="1.5" rx="1.51322" ry="1.5" transform="matrix(-0.999375 -0.0353407 0.101065 -0.99488 346.153 1054.82)" fill="url(#paint12_radial_273_4717)"/>
</g>
<g style="mix-blend-mode:color-dodge">
<rect width="1.2541" height="13.1321" transform="matrix(0.712666 0.603651 -0.433371 0.831607 72.1084 694.873)" fill="black"/>
<ellipse cx="0.62705" cy="6.56604" rx="0.62705" ry="6.56604" transform="matrix(0.712666 0.603651 -0.433371 0.831607 72.1079 694.873)" fill="url(#paint13_radial_273_4717)"/>
</g>
<g style="mix-blend-mode:color-dodge">
<rect width="1.36793" height="12.0394" transform="matrix(0.433371 -0.831607 0.712666 0.603651 65.1235 697.646)" fill="black"/>
<ellipse cx="0.683963" cy="6.01968" rx="0.683963" ry="6.01968" transform="matrix(0.433371 -0.831607 0.712666 0.603651 65.1235 697.646)" fill="url(#paint14_radial_273_4717)"/>
</g>
<g style="mix-blend-mode:color-dodge">
<rect width="1.26618" height="13.2295" transform="matrix(0.709746 0.615419 -0.426838 0.840592 118.824 652.622)" fill="black"/>
<ellipse cx="0.63309" cy="6.61473" rx="0.63309" ry="6.61473" transform="matrix(0.709746 0.615419 -0.426838 0.840592 118.824 652.622)" fill="url(#paint15_radial_273_4717)"/>
</g>
<g style="mix-blend-mode:color-dodge">
<rect width="1.37807" height="12.1553" transform="matrix(0.426838 -0.840593 0.709746 0.615419 111.842 655.41)" fill="black"/>
<ellipse cx="0.689034" cy="6.07767" rx="0.689034" ry="6.07767" transform="matrix(0.426838 -0.840593 0.709746 0.615419 111.842 655.41)" fill="url(#paint16_radial_273_4717)"/>
</g>
<g style="mix-blend-mode:color-dodge">
<rect width="1.76206" height="14.7669" transform="matrix(0.670641 0.741782 -0.34808 0.937465 151.737 811.072)" fill="black"/>
<ellipse cx="0.88103" cy="7.38344" rx="0.88103" ry="7.38344" transform="matrix(0.670641 0.741782 -0.34808 0.937465 151.737 811.072)" fill="url(#paint17_radial_273_4717)"/>
</g>
<g style="mix-blend-mode:color-dodge">
<rect width="1.53822" height="16.9158" transform="matrix(0.34808 -0.937465 0.670641 0.741782 143.818 813.095)" fill="black"/>
<ellipse cx="0.769108" cy="8.45789" rx="0.769108" ry="8.45789" transform="matrix(-0.0357734 -0.99936 0.90286 0.429935 142.149 815.78)" fill="url(#paint18_radial_273_4717)"/>
</g>
<g style="mix-blend-mode:color-dodge">
<rect width="0.891328" height="9.33857" transform="matrix(0.713394 0.600642 -0.435022 0.829311 187.069 820.361)" fill="black"/>
<ellipse cx="0.445664" cy="4.66928" rx="0.445664" ry="4.66928" transform="matrix(0.713394 0.600642 -0.435022 0.829311 187.069 820.361)" fill="url(#paint19_radial_273_4717)"/>
</g>
<g style="mix-blend-mode:color-dodge">
<rect width="0.972767" height="8.55675" transform="matrix(0.435022 -0.829311 0.713394 0.600642 182.092 822.335)" fill="black"/>
<ellipse cx="0.486383" cy="4.27837" rx="0.486383" ry="4.27837" transform="matrix(0.435022 -0.829311 0.713394 0.600642 182.092 822.335)" fill="url(#paint20_radial_273_4717)"/>
</g>
<g style="mix-blend-mode:color-dodge">
<rect width="1.14454" height="12.0763" transform="matrix(0.722286 0.561186 -0.455984 0.799251 67.0942 825.183)" fill="black"/>
<ellipse cx="0.57227" cy="6.03815" rx="0.57227" ry="6.03815" transform="matrix(0.722286 0.561186 -0.455984 0.799251 67.0947 825.183)" fill="url(#paint21_radial_273_4717)"/>
</g>
<g style="mix-blend-mode:color-dodge">
<rect width="1.25795" height="10.9876" transform="matrix(0.455984 -0.799251 0.722286 0.561186 60.5 827.75)" fill="black"/>
<ellipse cx="0.628974" cy="5.49379" rx="0.628974" ry="5.49379" transform="matrix(0.455984 -0.799251 0.722286 0.561186 60.5 827.75)" fill="url(#paint22_radial_273_4717)"/>
</g>
<g style="mix-blend-mode:color-dodge">
<rect width="1.67115" height="17.6472" transform="matrix(0.723281 0.556411 -0.458437 0.795619 243.752 997.003)" fill="black"/>
<ellipse cx="0.835576" cy="8.82362" rx="0.835576" ry="8.82362" transform="matrix(0.723281 0.556411 -0.458437 0.795619 243.752 997.003)" fill="url(#paint23_radial_273_4717)"/>
</g>
<g style="mix-blend-mode:color-dodge">
<rect width="1.83825" height="16.0431" transform="matrix(0.458437 -0.795619 0.723281 0.556411 234.088 1000.76)" fill="black"/>
<ellipse cx="0.919126" cy="8.02153" rx="0.919126" ry="8.02153" transform="matrix(0.458437 -0.795619 0.723281 0.556411 234.088 1000.76)" fill="url(#paint24_radial_273_4717)"/>
</g>
<g style="mix-blend-mode:color-dodge">
<rect width="1.02221" height="9.92952" transform="matrix(0.550588 0.821729 -0.520386 0.834323 211.112 889.259)" fill="black"/>
<ellipse cx="0.511105" cy="4.96476" rx="0.511105" ry="4.96476" transform="matrix(0.550588 0.821729 -0.520386 0.834323 211.112 889.259)" fill="url(#paint25_radial_273_4717)"/>
</g>
<g style="mix-blend-mode:color-dodge">
<rect width="1.06094" height="9.74636" transform="matrix(-0.000534327 -1.01497 0.858116 0.555439 204.628 891.652)" fill="black"/>
<ellipse cx="0.53047" cy="4.87318" rx="0.53047" ry="4.87318" transform="matrix(-0.000534327 -1.01497 0.858116 0.555439 204.628 891.652)" fill="url(#paint26_radial_273_4717)"/>
</g>
<defs>
<filter id="filter0_f_273_4717" x="-453.625" y="-130.627" width="1768.73" height="2462.84" filterUnits="userSpaceOnUse" color-interpolation-filters="sRGB">
<feFlood flood-opacity="0" result="BackgroundImageFix"/>
<feBlend mode="normal" in="SourceGraphic" in2="BackgroundImageFix" result="shape"/>
<feGaussianBlur stdDeviation="67.76" result="effect1_foregroundBlur_273_4717"/>
</filter>
<filter id="filter1_f_273_4717" x="-571.952" y="-64.2724" width="1761.78" height="2477.41" filterUnits="userSpaceOnUse" color-interpolation-filters="sRGB">
<feFlood flood-opacity="0" result="BackgroundImageFix"/>
<feBlend mode="normal" in="SourceGraphic" in2="BackgroundImageFix" result="shape"/>
<feGaussianBlur stdDeviation="54.56" result="effect1_foregroundBlur_273_4717"/>
</filter>
<filter id="filter2_f_273_4717" x="-229.395" y="-106.116" width="1597.22" height="2245.38" filterUnits="userSpaceOnUse" color-interpolation-filters="sRGB">
<feFlood flood-opacity="0" result="BackgroundImageFix"/>
<feBlend mode="normal" in="SourceGraphic" in2="BackgroundImageFix" result="shape"/>
<feGaussianBlur stdDeviation="49.36" result="effect1_foregroundBlur_273_4717"/>
</filter>
<filter id="filter3_f_273_4717" x="-205.818" y="-169.274" width="1653.38" height="2307.92" filterUnits="userSpaceOnUse" color-interpolation-filters="sRGB">
<feFlood flood-opacity="0" result="BackgroundImageFix"/>
<feBlend mode="normal" in="SourceGraphic" in2="BackgroundImageFix" result="shape"/>
<feGaussianBlur stdDeviation="60" result="effect1_foregroundBlur_273_4717"/>
</filter>
<radialGradient id="paint0_radial_273_4717" cx="0" cy="0" r="1" gradientUnits="userSpaceOnUse" gradientTransform="translate(1.51322 1.5) rotate(90) scale(1.5 1.51322)">
<stop offset="0.015625" stop-color="white"/>
<stop offset="1" stop-color="#533BE9" stop-opacity="0"/>
</radialGradient>
<radialGradient id="paint1_radial_273_4717" cx="0" cy="0" r="1" gradientUnits="userSpaceOnUse" gradientTransform="translate(1.51322 1.5) rotate(90) scale(1.5 1.51322)">
<stop offset="0.015625" stop-color="white"/>
<stop offset="1" stop-color="#533BE9" stop-opacity="0"/>
</radialGradient>
<radialGradient id="paint2_radial_273_4717" cx="0" cy="0" r="1" gradientUnits="userSpaceOnUse" gradientTransform="translate(1.51322 1.5) rotate(90) scale(1.5 1.51322)">
<stop offset="0.015625" stop-color="white"/>
<stop offset="1" stop-color="#533BE9" stop-opacity="0"/>
</radialGradient>
<radialGradient id="paint3_radial_273_4717" cx="0" cy="0" r="1" gradientUnits="userSpaceOnUse" gradientTransform="translate(1.51322 1.5) rotate(90) scale(1.5 1.51322)">
<stop offset="0.015625" stop-color="white"/>
<stop offset="1" stop-color="#533BE9" stop-opacity="0"/>
</radialGradient>
<radialGradient id="paint4_radial_273_4717" cx="0" cy="0" r="1" gradientUnits="userSpaceOnUse" gradientTransform="translate(1.51322 1.5) rotate(90) scale(1.5 1.51322)">
<stop offset="0.015625" stop-color="white"/>
<stop offset="1" stop-color="#533BE9" stop-opacity="0"/>
</radialGradient>
<radialGradient id="paint5_radial_273_4717" cx="0" cy="0" r="1" gradientUnits="userSpaceOnUse" gradientTransform="translate(1.51322 1.5) rotate(90) scale(1.5 1.51322)">
<stop offset="0.015625" stop-color="white"/>
<stop offset="1" stop-color="#533BE9" stop-opacity="0"/>
</radialGradient>
<radialGradient id="paint6_radial_273_4717" cx="0" cy="0" r="1" gradientUnits="userSpaceOnUse" gradientTransform="translate(1.51322 1.5) rotate(90) scale(1.5 1.51322)">
<stop offset="0.015625" stop-color="white"/>
<stop offset="1" stop-color="#533BE9" stop-opacity="0"/>
</radialGradient>
<radialGradient id="paint7_radial_273_4717" cx="0" cy="0" r="1" gradientUnits="userSpaceOnUse" gradientTransform="translate(1.5132 1.5) rotate(90) scale(1.5 1.5132)">
<stop offset="0.015625" stop-color="white"/>
<stop offset="1" stop-color="#533BE9" stop-opacity="0"/>
</radialGradient>
<radialGradient id="paint8_radial_273_4717" cx="0" cy="0" r="1" gradientUnits="userSpaceOnUse" gradientTransform="translate(1.51322 1.5) rotate(90) scale(1.5 1.51322)">
<stop offset="0.015625" stop-color="white"/>
<stop offset="1" stop-color="#533BE9" stop-opacity="0"/>
</radialGradient>
<radialGradient id="paint9_radial_273_4717" cx="0" cy="0" r="1" gradientUnits="userSpaceOnUse" gradientTransform="translate(1.51322 1.5) rotate(90) scale(1.5 1.51322)">
<stop offset="0.015625" stop-color="white"/>
<stop offset="1" stop-color="#533BE9" stop-opacity="0"/>
</radialGradient>
<radialGradient id="paint10_radial_273_4717" cx="0" cy="0" r="1" gradientUnits="userSpaceOnUse" gradientTransform="translate(1.51322 1.5) rotate(90) scale(1.5 1.51322)">
<stop offset="0.015625" stop-color="white"/>
<stop offset="1" stop-color="#533BE9" stop-opacity="0"/>
</radialGradient>
<radialGradient id="paint11_radial_273_4717" cx="0" cy="0" r="1" gradientUnits="userSpaceOnUse" gradientTransform="translate(1.51322 1.5) rotate(90) scale(1.5 1.51322)">
<stop offset="0.015625" stop-color="white"/>
<stop offset="1" stop-color="#533BE9" stop-opacity="0"/>
</radialGradient>
<radialGradient id="paint12_radial_273_4717" cx="0" cy="0" r="1" gradientUnits="userSpaceOnUse" gradientTransform="translate(1.51322 1.5) rotate(90) scale(1.5 1.51322)">
<stop offset="0.015625" stop-color="white"/>
<stop offset="1" stop-color="#533BE9" stop-opacity="0"/>
</radialGradient>
<radialGradient id="paint13_radial_273_4717" cx="0" cy="0" r="1" gradientUnits="userSpaceOnUse" gradientTransform="translate(0.62705 6.56604) rotate(90) scale(6.56604 0.62705)">
<stop offset="0.0364583" stop-color="#FFF1E4"/>
<stop offset="1" stop-color="#3A71FF" stop-opacity="0"/>
</radialGradient>
<radialGradient id="paint14_radial_273_4717" cx="0" cy="0" r="1" gradientUnits="userSpaceOnUse" gradientTransform="translate(0.683963 6.01968) rotate(90) scale(6.01968 0.683963)">
<stop offset="0.0364583" stop-color="#FFF1E4"/>
<stop offset="1" stop-color="#3A71FF" stop-opacity="0"/>
</radialGradient>
<radialGradient id="paint15_radial_273_4717" cx="0" cy="0" r="1" gradientUnits="userSpaceOnUse" gradientTransform="translate(0.63309 6.61473) rotate(90) scale(6.61473 0.63309)">
<stop offset="0.0364583" stop-color="#FFF1E4"/>
<stop offset="1" stop-color="#3A71FF" stop-opacity="0"/>
</radialGradient>
<radialGradient id="paint16_radial_273_4717" cx="0" cy="0" r="1" gradientUnits="userSpaceOnUse" gradientTransform="translate(0.689034 6.07767) rotate(90) scale(6.07767 0.689034)">
<stop offset="0.0364583" stop-color="#FFF1E4"/>
<stop offset="1" stop-color="#3A71FF" stop-opacity="0"/>
</radialGradient>
<radialGradient id="paint17_radial_273_4717" cx="0" cy="0" r="1" gradientUnits="userSpaceOnUse" gradientTransform="translate(0.88103 7.38344) rotate(90) scale(7.38344 0.88103)">
<stop offset="0.0364583" stop-color="#FFF1E4"/>
<stop offset="1" stop-color="#3A71FF" stop-opacity="0"/>
</radialGradient>
<radialGradient id="paint18_radial_273_4717" cx="0" cy="0" r="1" gradientUnits="userSpaceOnUse" gradientTransform="translate(0.769108 8.45789) rotate(90) scale(8.45789 0.769108)">
<stop offset="0.0364583" stop-color="#FFF1E4"/>
<stop offset="1" stop-color="#3A71FF" stop-opacity="0"/>
</radialGradient>
<radialGradient id="paint19_radial_273_4717" cx="0" cy="0" r="1" gradientUnits="userSpaceOnUse" gradientTransform="translate(0.445664 4.66928) rotate(90) scale(4.66928 0.445664)">
<stop offset="0.0364583" stop-color="#FFF1E4"/>
<stop offset="1" stop-color="#3A71FF" stop-opacity="0"/>
</radialGradient>
<radialGradient id="paint20_radial_273_4717" cx="0" cy="0" r="1" gradientUnits="userSpaceOnUse" gradientTransform="translate(0.486383 4.27837) rotate(90) scale(4.27837 0.486383)">
<stop offset="0.0364583" stop-color="#FFF1E4"/>
<stop offset="1" stop-color="#3A71FF" stop-opacity="0"/>
</radialGradient>
<radialGradient id="paint21_radial_273_4717" cx="0" cy="0" r="1" gradientUnits="userSpaceOnUse" gradientTransform="translate(0.57227 6.03815) rotate(90) scale(6.03815 0.57227)">
<stop offset="0.0364583" stop-color="#FFF1E4"/>
<stop offset="1" stop-color="#3A71FF" stop-opacity="0"/>
</radialGradient>
<radialGradient id="paint22_radial_273_4717" cx="0" cy="0" r="1" gradientUnits="userSpaceOnUse" gradientTransform="translate(0.628974 5.49379) rotate(90) scale(5.49379 0.628974)">
<stop offset="0.0364583" stop-color="#FFF1E4"/>
<stop offset="1" stop-color="#3A71FF" stop-opacity="0"/>
</radialGradient>
<radialGradient id="paint23_radial_273_4717" cx="0" cy="0" r="1" gradientUnits="userSpaceOnUse" gradientTransform="translate(0.835576 8.82362) rotate(90) scale(8.82362 0.835576)">
<stop offset="0.0364583" stop-color="#FFF1E4"/>
<stop offset="1" stop-color="#3A71FF" stop-opacity="0"/>
</radialGradient>
<radialGradient id="paint24_radial_273_4717" cx="0" cy="0" r="1" gradientUnits="userSpaceOnUse" gradientTransform="translate(0.919126 8.02153) rotate(90) scale(8.02153 0.919126)">
<stop offset="0.0364583" stop-color="#FFF1E4"/>
<stop offset="1" stop-color="#3A71FF" stop-opacity="0"/>
</radialGradient>
<radialGradient id="paint25_radial_273_4717" cx="0" cy="0" r="1" gradientUnits="userSpaceOnUse" gradientTransform="translate(0.511105 4.96476) rotate(90) scale(4.96476 0.511105)">
<stop offset="0.0364583" stop-color="#FFF1E4"/>
<stop offset="1" stop-color="#3A71FF" stop-opacity="0"/>
</radialGradient>
<radialGradient id="paint26_radial_273_4717" cx="0" cy="0" r="1" gradientUnits="userSpaceOnUse" gradientTransform="translate(0.53047 4.87318) rotate(90) scale(4.87318 0.53047)">
<stop offset="0.0364583" stop-color="#FFF1E4"/>
<stop offset="1" stop-color="#3A71FF" stop-opacity="0"/>
</radialGradient>
</defs>
</svg>
